<svg width="1440" height="597" viewBox="0 0 1440 597" fill="none" xmlns="http://www.w3.org/2000/svg">
<path d="M268.608 428.572L399.19 383.582L321.962 498.147L191.381 543.137L268.608 428.572Z" fill="#FFF3F3" fill-opacity="0.67"/>
<path d="M119.88 244.412L246.045 300.619L255.679 438.473L129.513 382.266L119.88 244.412Z" fill="white" fill-opacity="0.85"/>
<path d="M964.563 431.606L829.997 462.692L929.342 558.687L1063.91 527.601L964.563 431.606Z" fill="white" fill-opacity="0.61"/>
<path d="M-16.9633 124.843L118.124 153.574L106.088 291.239L-29 262.507L-16.9633 124.843Z" fill="white" fill-opacity="0.95"/>
<path d="M363.689 0H502.227V138.623H363.689V0Z" fill="white"/>
<path d="M1191.92 0H1330.46V138.623H1191.92V0Z" fill="white"/>
<path d="M87.6107 0H226.148V138.623H87.6107V0Z" fill="white"/>
<path d="M639.768 0H778.305V138.623H639.768V0Z" fill="white"/>
<path d="M1118.94 459.567L1247.87 410.044L1262.31 547.477L1133.38 597L1118.94 459.567Z" fill="white" fill-opacity="0.62"/>
<path d="M493.059 363.979L598.854 452.807L639.232 584.959L533.437 496.132L493.059 363.979Z" fill="white" fill-opacity="0.67"/>
<path d="M640.971 276.753L778.047 293.594L715.348 416.723L578.272 399.882L640.971 276.753Z" fill="#D9D9D9" fill-opacity="0.97"/>
<path d="M1276.14 253.231L1404.19 304.998L1368.45 438.48L1240.4 386.713L1276.14 253.231Z" fill="#E3E3E3"/>
<path d="M1053.39 138.623H1189.93V277.245H1053.39V138.623Z" fill="#F7F7F7"/>
<path d="M915.211 276.753L1039.34 337.332L1053.78 474.765L929.647 414.187L915.211 276.753Z" fill="white" fill-opacity="0.86"/>
<path d="M778.305 138.623L916.843 138.623V277.245H778.305L778.305 138.623Z" fill="white"/>
<path d="M296.184 372.316L400.414 281.655L537.763 296.1L433.534 386.761L296.184 372.316Z" fill="white" fill-opacity="0.92"/>
<path d="M226.148 138.623H363.689L363.689 277.245H226.148L226.148 138.623Z" fill="white"/>
<path d="M916.843 0H1054.38V138.623L916.843 138.623L916.843 0Z" fill="white"/>
<path d="M1330.46 138.623L1469 138.623V277.245H1330.46L1330.46 138.623Z" fill="white" fill-opacity="0.92"/>
<path d="M501.23 138.623H637.775V277.245H501.23V138.623Z" fill="white"/>
</svg>
