<svg width="1440" height="911" viewBox="0 0 1440 911" fill="none" xmlns="http://www.w3.org/2000/svg">
<g clip-path="url(#clip0_445_552)">
<rect width="1440" height="911" fill="white"/>
<path d="M1019.18 862.173L1012.96 883.849L1012.13 886.002C1011.62 887.341 1011.55 888.809 1011.92 890.196L1012 890.46C1012.29 891.536 1012.88 892.51 1013.7 893.268C1015.19 894.643 1017.27 895.165 1019.23 894.65L1173.67 853.951C1175.63 853.435 1177.18 851.955 1177.78 850.028C1178.11 848.967 1178.13 847.832 1177.84 846.756L1177.67 846.119C1177.36 844.959 1176.79 843.882 1176.02 842.962L1167.89 833.331C1167.12 832.417 1166.24 831.596 1165.28 830.884L1146.19 816.788L1137.67 809.215C1136.21 807.919 1134.28 807.287 1132.34 807.47C1130.21 807.672 1128.1 806.888 1126.61 805.343L1121.09 799.602C1120.25 798.727 1119.52 797.756 1118.91 796.708L1112.7 786.083L1105.03 771.859L1094.33 744.354L1087.89 726.557L1083.8 711.388L1076.25 683.363C1075.75 681.528 1076.84 679.648 1078.68 679.164C1080.52 678.679 1081.61 676.799 1081.11 674.965L1079.63 669.481C1079.4 668.615 1079.3 667.72 1079.33 666.825L1079.35 665.965C1079.42 663.823 1079.95 661.723 1080.91 659.807L1081.35 658.932C1081.75 658.129 1082.22 657.363 1082.76 656.644L1083.38 655.803C1083.77 655.287 1084.19 654.802 1084.66 654.352L1085.31 653.715C1086.42 652.631 1087.79 651.853 1089.29 651.457L1093.6 650.321C1095.13 649.918 1096.18 648.516 1096.12 646.937L1096.12 646.78C1096.05 644.672 1094.03 643.17 1091.98 643.708L1091.6 643.81C1090.06 644.215 1088.48 643.299 1088.06 641.763L1088 641.538C1087.62 640.126 1086.17 639.284 1084.75 639.657C1083.34 640.029 1081.89 639.187 1081.51 637.776L1081.31 637.045C1080.82 635.23 1078.95 634.146 1077.13 634.626L1075.56 635.04C1072.88 635.747 1070.11 634.147 1069.39 631.465L1067.56 624.692L1067.43 624.178C1066.54 620.906 1066.78 617.44 1068.1 614.328L1069.41 611.208L1072.39 603.927L1074.85 597.451C1075.35 596.156 1075.66 594.799 1075.78 593.418L1075.9 592.094C1076.06 590.311 1075.91 588.512 1075.44 586.78L1074.48 583.215C1074.05 581.618 1073.36 580.099 1072.44 578.72L1071.58 577.429C1070.63 576.003 1069.45 574.746 1068.08 573.71L1065.18 571.506C1063.9 570.542 1062.49 569.782 1060.99 569.253L1054.99 567.146C1054.04 566.814 1053.07 566.576 1052.08 566.434L1045.58 565.502L1037.87 565.368L1030.1 565.948C1029.55 565.989 1029.01 566.08 1028.48 566.22L1027.57 566.459C1024.32 567.316 1020.88 565.969 1019.06 563.133L1017.78 561.13C1017.52 560.715 1017.43 560.214 1017.53 559.733C1017.71 558.841 1018.51 558.214 1019.43 558.246L1026.16 558.485C1031.94 558.69 1036.26 553.269 1034.75 547.688L1034.5 546.751C1033.14 541.69 1027.3 539.316 1022.8 541.993L1015.46 546.363C1014.64 546.851 1013.58 546.419 1013.33 545.497C1013.3 545.376 1013.28 545.251 1013.28 545.126L1013.27 537.851C1013.26 532.33 1008.01 528.293 1002.66 529.702C997.221 531.135 994.723 537.393 997.677 542.191L1000.29 546.436C1001.01 547.612 1000.88 549.119 999.966 550.145C999.343 550.844 998.438 551.225 997.499 551.184L990.902 550.899C985.277 550.655 981.053 555.917 982.515 561.345L982.648 561.837C984.075 567.132 990.303 569.47 994.847 566.418L1002.41 561.953C1003.6 561.25 1005.14 561.879 1005.5 563.216C1005.56 563.46 1005.58 563.714 1005.56 563.965L1005.11 568.462C1004.87 570.883 1003.15 572.895 1000.79 573.516C1000.33 573.637 999.888 573.813 999.472 574.041L990.542 578.924L981.121 585.052C979.944 585.818 978.88 586.743 977.958 587.801L973.083 593.401C971.964 594.686 971.071 596.151 970.44 597.734L968.679 602.157C967.469 605.196 967.276 608.548 968.13 611.715L968.362 612.578C969.215 615.744 971.069 618.557 973.648 620.598L979.431 625.173L987.514 632.79L991.993 638.277C993.357 639.948 994.351 641.887 994.912 643.966L996.106 648.397L997.25 652.642C997.972 655.324 996.381 658.071 993.695 658.779L991.871 659.26C990.193 659.702 989.199 661.419 989.65 663.094C990.102 664.77 989.107 666.486 987.429 666.928L986.34 667.216C984.662 667.658 983.667 669.375 984.119 671.05L984.272 671.617C984.639 672.979 983.83 674.375 982.466 674.735C980.585 675.23 979.937 677.558 981.288 678.963L981.67 679.361C982.399 680.119 983.482 680.424 984.497 680.156L988.766 679.031C991.821 678.226 995.084 678.857 997.627 680.745L1001.14 683.352L1005.3 687.251C1006.42 688.293 1007.22 689.624 1007.61 691.092L1008.97 696.147C1009.39 697.699 1010.99 698.626 1012.55 698.216C1014.1 697.806 1015.7 698.733 1016.12 700.285L1021.08 718.71L1027.49 742.474L1033.21 763.709L1036.27 787.271L1038.34 804.444C1038.43 805.242 1038.46 806.045 1038.43 806.847L1037.98 818.599C1037.94 819.443 1037.84 820.282 1037.67 821.109L1036.07 828.766C1035.58 831.093 1034 833.036 1031.81 833.982C1029.96 834.785 1028.52 836.312 1027.84 838.207L1019.18 862.173Z" fill="black" stroke="black" stroke-width="0.952381"/>
<path d="M115.5 838.968L121.729 826.507L92.5 803.982V792H90.5833L87.2292 793.438L84.8333 795.834L82.4375 798.23L81.4792 800.627V803.982H77.1667L72.375 805.419L67.1042 806.857L61.8333 809.733L58 812.608L54.6458 815.484L51.2917 818.839L48.4167 823.631L47.4583 826.507L46.5 829.382V832.737V861.972L58 872.995V884.977H35V896H127V884.018H104.958L115.5 873.475V868.682L114.062 864.848L113.104 861.972L110.708 858.618L108.312 855.742L104.958 852.866L101.604 850.949L98.25 849.991L95.8542 849.512H93.4583H90.5833L87.2292 848.074L84.8333 846.157L83.3958 844.24L82.4375 841.843L81.4792 838.009V834.654V830.82L82.4375 833.696L83.3958 834.654L84.8333 836.092L87.2292 838.009L90.5833 838.968H94.8958L96.8125 838.009L98.7292 837.051L101.604 833.696L115.5 838.968Z" fill="black" stroke="black" stroke-width="0.952381"/>
<path d="M158.305 685.098L0 847V371.065L58.4509 312.109L146.127 237.511L232.586 155.694L311.738 109.972L361.665 77.4862L416.463 53.4223L444.471 48.6096L471.261 45H509.01H554.066H633.219H670.968H703.847L735.508 53.4223L763.515 64.2511L817.096 76.283L853.627 81.0958L877.982 85.9085L931.562 96.7373L975.4 106.363L997.319 111.176L1016.8 122.004L1049.68 137.646L1088.65 154.49L1125.18 165.319L1167.8 186.977L1192.16 199.009L1222.6 212.244L1239.65 223.072L1256.7 233.901L1277.4 244.73L1293.23 259.97L1324.89 285.638L1360.2 314.515L1339.5 306.093L1332.19 314.515H1316.36L1294.44 306.093L1272.53 289.248L1259.13 278.419L1239.65 269.997L1216.51 255.559L1192.16 244.73L1188.5 248.339L1192.16 255.559L1212.86 269.997L1232.34 289.248L1243.3 298.874L1330.98 385.503L1345.59 403.551L1360.2 419.193L1382.12 442.053L1402.82 467.32L1415 494.994L1400.39 484.165L1373.6 482.962L1348.03 476.946L1330.98 463.711L1322.45 457.695L1299.32 431.225L1285.92 419.193L1276.18 409.567L1260.35 399.942L1293.23 467.32L1305.4 499.807L1316.36 525.074L1321.23 557.56L1312.71 541.918L1299.32 537.106L1272.53 533.496L1251.82 511.839L1235.99 490.181L1228.69 467.32L1212.86 436.037L1192.16 414.38L1177.54 399.942L1160.49 374.675L1134.92 344.595L1097.17 326.547L1056.99 304.889L1016.8 279.622L1056.99 322.937L1097.17 371.065L1109.35 407.161L1125.18 457.695V494.994L1120.31 546.731L1115.44 587.64L1109.35 623.735L1106.91 639.377L1097.17 663.441V655.018V646.596V634.564L1086.21 629.751L1067.95 610.5L1056.99 584.03L1049.68 541.918V511.839V499.807L1026.54 448.069L1008.28 414.38L988.795 403.551L943.739 371.065L910.861 342.188L877.982 322.937H860.934L840.232 326.547L830.491 342.188L817.096 355.424V371.065L831.708 399.942L860.934 448.069L877.982 473.336L897.466 494.994L931.562 533.496L970.529 571.998L986.36 610.5L988.795 646.596L986.36 663.441L977.836 676.676L982.707 688.708L986.36 700.74L970.529 688.708L940.086 659.831L888.941 610.5L846.321 580.42L802.483 546.731L750.12 482.962L707.5 431.225L672.186 414.38L583.292 371.065L523.623 332.563L512.664 325.344L495.615 320.531L471.261 322.937L292.255 523.87L158.305 685.098Z" fill="black"/>
<path d="M1260.35 399.942L1235.99 363.846L1192.16 314.515M1260.35 399.942L1293.23 467.32L1305.4 499.807L1316.36 525.074L1321.23 557.56L1312.71 541.918L1299.32 537.106L1272.53 533.496L1251.82 511.839L1235.99 490.181L1228.69 467.32L1212.86 436.037L1192.16 414.38L1177.54 399.942L1160.49 374.675L1134.92 344.595L1097.17 326.547L1056.99 304.889L1016.8 279.622L1056.99 322.937L1097.17 371.065L1109.35 407.161L1125.18 457.695V494.994L1120.31 546.731L1115.44 587.64L1109.35 623.735L1106.91 639.377L1097.17 663.441V655.018V646.596V634.564L1086.21 629.751L1067.95 610.5L1056.99 584.03L1049.68 541.918V511.839V499.807L1026.54 448.069L1008.28 414.38L988.795 403.551L943.739 371.065L910.861 342.188L877.982 322.937H860.934L840.232 326.547L830.491 342.188L817.096 355.424V371.065L831.708 399.942L860.934 448.069L877.982 473.336L897.466 494.994L931.562 533.496L970.529 571.998L986.36 610.5L988.795 646.596L986.36 663.441L977.836 676.676L982.707 688.708L986.36 700.74L970.529 688.708L940.086 659.831L888.941 610.5L846.321 580.42L802.483 546.731L750.12 482.962L707.5 431.225L672.186 414.38L583.292 371.065L523.623 332.563L512.663 325.344L495.615 320.531L471.261 322.937L292.255 523.87L158.305 685.098L0 847V371.065L58.4509 312.109L146.127 237.511L232.586 155.694L311.738 109.972L361.665 77.4862L416.463 53.4223L444.471 48.6096L471.261 45H509.01H554.066H633.219H670.968H703.847L735.508 53.4223L763.515 64.2511L817.096 76.283L853.627 81.0958L877.982 85.9085L931.562 96.7373L975.4 106.363L997.319 111.176L1016.8 122.004L1049.68 137.646L1088.65 154.49L1125.18 165.319L1167.8 186.977L1192.16 199.009L1222.6 212.244L1239.65 223.072L1256.7 233.901L1277.4 244.73L1293.23 259.97L1324.89 285.638L1360.2 314.515L1339.5 306.093L1332.19 314.515H1316.36L1294.44 306.093L1272.53 289.248L1259.13 278.419L1239.65 269.997L1216.51 255.559L1192.16 244.73L1188.5 248.339L1192.16 255.559L1212.86 269.997L1232.34 289.248L1243.3 298.874L1330.98 385.503L1345.59 403.551L1360.2 419.193L1382.12 442.053L1402.82 467.32L1415 494.994L1400.39 484.165L1373.6 482.962L1348.02 476.946L1330.98 463.711L1322.45 457.695L1299.32 431.225L1285.92 419.193L1276.18 409.567L1260.35 399.942Z" stroke="black" stroke-width="0.952381"/>
<path d="M1262.33 984.798L1262.09 1002.67L1265.99 1021.71L1265.87 1026.78L1149.37 965.698L1152.3 962.539L1160.61 957.802L1168.6 953.416L1173.95 951.165L1178.92 947.92L1182.83 943.708L1188.03 945.845L1196.88 937.715L1203.06 931.047L1208.92 924.73L1214.07 917.769L1222.42 905.953L1230.67 892.119L1237.33 880.712L1250.29 857.577L1242.6 853.187L1244.47 849.063L1245.36 845.992L1246.22 842.248L1246.75 838.855L1246.99 836.486L1245.83 833.502L1243.29 829.903L1240.45 827.328L1238.32 825.397L1236.19 823.466L1236.67 818.727L1242.55 820.835L1244.45 817.383L1248.97 819.549L1251.84 815.045L1265.42 821.542L1267.9 816.043L1269.44 812.27L1271.55 805.777L1272.67 800.336L1273.77 794.223L1274.89 788.782L1274.72 784.745L1274.01 776.35L1273 768.978L1273.07 762.572L1273.6 759.179L1274.49 756.107L1275.76 754.031L1276.74 752.978L1278.72 751.545L1280.05 750.814L1282.09 750.727L1283.48 751.341L1288.45 755.848L1289.43 754.795L1290.79 754.737L1291.85 755.702L1298.24 761.496L1301.55 759.332L1303.56 758.572L1306.94 757.753L1310.31 756.935L1313.71 756.79L1317.47 756.966L1320.22 757.523L1320.16 756.177L1320.72 753.457L1320.99 751.76L1322.59 749.333L1324.54 747.227L1326.85 745.443L1330.57 744.947L1333.98 744.801L1336.4 745.709L1338.5 746.967L1340.63 748.898L1342.08 750.859L1343.53 752.819L1344.68 755.803L1344.5 759.518L1343.59 761.916L1341.31 764.373L1338.38 767.531L1340.51 769.463L1342.67 772.066L1344.85 775.343L1346.07 779.673L1346.92 783.681L1347.78 787.688L1351.18 787.543L1354.23 787.076L1355.65 788.363L1356.77 790.674L1357.51 791.991L1362.95 791.758L1364.67 792.022L1366.44 793.631L1367.27 796.966L1366.74 800.359L1363.81 803.518L1359.25 808.431L1355.61 810.946L1350.29 813.87L1342 819.279L1336.74 823.549L1331.83 828.14L1325.64 834.808L1321.44 840.043L1316.32 847.677L1329.25 854.876L1327.41 859.673L1331.58 861.517L1329.07 866.343L1335.69 869.767L1332.44 873.276L1327.26 871.813L1320.01 869.763L1313.95 871.371L1310.37 875.231L1305.16 880.846L1301.91 884.356L1294.6 880.96L1280.87 909.858L1269 934.632L1261.63 953.147L1257.96 970.492L1257.72 980.614L1262.33 984.798Z" fill="black" stroke="black" stroke-width="0.952381"/>
</g>
<defs>
<clipPath id="clip0_445_552">
<rect width="1440" height="911" fill="white"/>
</clipPath>
</defs>
</svg>
