<svg width="677" height="551" viewBox="0 0 677 551" fill="none" xmlns="http://www.w3.org/2000/svg">
<g clip-path="url(#clip0_503_2)">
<rect width="677" height="551" fill="white"/>
<rect x="13" width="657" height="551" fill="white"/>
<rect x="31" y="93" width="57.0826" height="57.0826" fill="#D9D9D9"/>
<rect width="57.0826" height="57.0826" transform="matrix(-1 0 0 1 259.33 150.082)" fill="#D9D9D9"/>
<rect x="145.165" y="93" width="57.0826" height="57.0826" fill="#D9D9D9"/>
<rect width="57.0826" height="57.0826" transform="matrix(-1 0 0 1 145.165 150.082)" fill="#D9D9D9"/>
<rect x="88.083" y="93" width="57.0826" height="57.0826" fill="#3F3F3F"/>
<rect width="57.0826" height="57.0826" transform="matrix(-1 0 0 1 202.248 150.082)" fill="#3F3F3F"/>
<rect x="202.248" y="93" width="57.0826" height="57.0826" fill="#3F3F3F"/>
<rect width="57.0826" height="57.0826" transform="matrix(-1 0 0 1 88.083 150.082)" fill="#3F3F3F"/>
<path d="M31 208.102H259.798V93.4688" stroke="black" stroke-width="5"/>
<path d="M31 233.367H283.193V95.3398" stroke="black" stroke-width="4"/>
<path d="M32.8721 246V236.643H280.854L271.964 246H32.8721Z" fill="black" stroke="black" stroke-width="4"/>
<rect x="33" y="314" width="56.1336" height="56.1336" fill="#D9D9D9"/>
<rect width="56.1336" height="56.1336" transform="matrix(-1 0 0 1 257.534 370.133)" fill="#D9D9D9"/>
<rect x="145.268" y="314" width="56.1336" height="56.1336" fill="#D9D9D9"/>
<rect width="56.1336" height="56.1336" transform="matrix(-1 0 0 1 145.268 370.133)" fill="#D9D9D9"/>
<rect x="89.1338" y="314" width="56.1336" height="56.1336" fill="#3F3F3F"/>
<rect width="56.1336" height="56.1336" transform="matrix(-1 0 0 1 201.4 370.133)" fill="#3F3F3F"/>
<rect x="201.4" y="314" width="56.1336" height="56.1336" fill="#3F3F3F"/>
<rect width="56.1336" height="56.1336" transform="matrix(-1 0 0 1 89.1338 370.133)" fill="#3F3F3F"/>
<path d="M33 427.188H257.994V314.461" stroke="black" stroke-width="5"/>
<path d="M33 452.034H281V316.301" stroke="black" stroke-width="4"/>
<path d="M34.8408 464.456V455.254H278.7L269.958 464.456H34.8408Z" fill="black" stroke="black" stroke-width="4"/>
<path d="M247 144H215V139.35L215.719 134.699L217.517 131.837L219.674 129.333L222.91 126.472L226.146 124.325L225.067 123.252L222.191 120.39L221.112 116.813L222.191 113.951L223.989 111.447L227.225 108.943L226.146 106.439V105.008L227.225 101.431L229.022 100H231.899L234.775 101.431L235.854 105.008L234.775 108.943L236.573 110.016L238.73 112.52L240.888 116.813L239.449 121.821L236.573 124.325L240.888 127.902L244.843 132.911L247 139.35V144Z" fill="white" stroke="black" stroke-width="4"/>
<path d="M246 364H214V359.35L214.719 354.699L216.517 351.837L218.674 349.333L221.91 346.472L225.146 344.325L224.067 343.252L221.191 340.39L220.112 336.813L221.191 333.951L222.989 331.447L226.225 328.943L225.146 326.439V325.008L226.225 321.431L228.022 320H230.899L233.775 321.431L234.854 325.008L233.775 328.943L235.573 330.016L237.73 332.52L239.888 336.813L238.449 341.821L235.573 344.325L239.888 347.902L243.843 352.911L246 359.35V364Z" fill="white" stroke="black" stroke-width="4"/>
<path d="M190 144H158V139.35L158.719 134.699L160.517 131.837L162.674 129.333L165.91 126.472L169.146 124.325L168.067 123.252L165.191 120.39L164.112 116.813L165.191 113.951L166.989 111.447L170.225 108.943L169.146 106.439V105.008L170.225 101.431L172.022 100H174.899L177.775 101.431L178.854 105.008L177.775 108.943L179.573 110.016L181.73 112.52L183.888 116.813L182.449 121.821L179.573 124.325L183.888 127.902L187.843 132.911L190 139.35V144Z" fill="white" stroke="black" stroke-width="4"/>
<path d="M189 364H157V359.35L157.719 354.699L159.517 351.837L161.674 349.333L164.91 346.472L168.146 344.325L167.067 343.252L164.191 340.39L163.112 336.813L164.191 333.951L165.989 331.447L169.225 328.943L168.146 326.439V325.008L169.225 321.431L171.022 320H173.899L176.775 321.431L177.854 325.008L176.775 328.943L178.573 330.016L180.73 332.52L182.888 336.813L181.449 341.821L178.573 344.325L182.888 347.902L186.843 352.911L189 359.35V364Z" fill="white" stroke="black" stroke-width="4"/>
<path d="M133 144H101V139.35L101.719 134.699L103.517 131.837L105.674 129.333L108.91 126.472L112.146 124.325L111.067 123.252L108.191 120.39L107.112 116.813L108.191 113.951L109.989 111.447L113.225 108.943L112.146 106.439V105.008L113.225 101.431L115.022 100H117.899L120.775 101.431L121.854 105.008L120.775 108.943L122.573 110.016L124.73 112.52L126.888 116.813L125.449 121.821L122.573 124.325L126.888 127.902L130.843 132.911L133 139.35V144Z" fill="white" stroke="black" stroke-width="4"/>
<path d="M132 364H100V359.35L100.719 354.699L102.517 351.837L104.674 349.333L107.91 346.472L111.146 344.325L110.067 343.252L107.191 340.39L106.112 336.813L107.191 333.951L108.989 331.447L112.225 328.943L111.146 326.439V325.008L112.225 321.431L114.022 320H116.899L119.775 321.431L120.854 325.008L119.775 328.943L121.573 330.016L123.73 332.52L125.888 336.813L124.449 341.821L121.573 344.325L125.888 347.902L129.843 352.911L132 359.35V364Z" fill="white" stroke="black" stroke-width="4"/>
<path d="M75.5789 201H44.7895V199.646V197.277L45.4737 195.585L47.5263 193.892V190.508L44.7895 186.108L42.0526 182.723L40 179.677V175.615L41.0263 171.892L44.7895 168.846H48.5526L50.9474 169.862L53.3421 171.892L55.7368 173.923L58.1316 176.631L59.8421 179.677L61.5526 176.631L63.2632 173.923L65.3158 171.892L68.0526 169.862L72.5 168.846L75.5789 169.862L77.9737 171.892L79 175.615V179.677L77.9737 182.723L75.5789 186.108L72.5 190.508V193.892L74.2105 195.585L75.5789 198.292V201Z" fill="white"/>
<path d="M62.5789 165.123L61.5526 168.169L59.8421 170.877L58.1316 168.846L57.1053 167.154L56.4211 165.123L55.7368 163.092V161.4V158.692L57.1053 157.677L59.1579 157L61.5526 157.677L63.2632 158.692V161.4L62.5789 165.123Z" fill="white"/>
<path d="M72.5 193.892L74.2105 195.585L75.5789 198.292V201H44.7895V199.646V197.277L45.4737 195.585L47.5263 193.892M72.5 193.892V190.508L75.5789 186.108L77.9737 182.723L79 179.677V175.615L77.9737 171.892L75.5789 169.862L72.5 168.846L68.0526 169.862L65.3158 171.892L63.2632 173.923L61.5526 176.631L59.8421 179.677L58.1316 176.631L55.7368 173.923L53.3421 171.892L50.9474 169.862L48.5526 168.846H44.7895L41.0263 171.892L40 175.615V179.677L42.0526 182.723L44.7895 186.108L47.5263 190.508V193.892M72.5 193.892L67.0263 192.877H60.1842H53.3421L47.5263 193.892M61.5526 168.169L62.5789 165.123L63.2632 161.4V158.692L61.5526 157.677L59.1579 157L57.1053 157.677L55.7368 158.692V161.4V163.092L56.4211 165.123L57.1053 167.154L58.1316 168.846L59.8421 170.877L61.5526 168.169Z" stroke="black" stroke-width="4"/>
<path d="M189.579 420H158.789V418.646V416.277L159.474 414.585L161.526 412.892V409.508L158.789 405.108L156.053 401.723L154 398.677V394.615L155.026 390.892L158.789 387.846H162.553L164.947 388.862L167.342 390.892L169.737 392.923L172.132 395.631L173.842 398.677L175.553 395.631L177.263 392.923L179.316 390.892L182.053 388.862L186.5 387.846L189.579 388.862L191.974 390.892L193 394.615V398.677L191.974 401.723L189.579 405.108L186.5 409.508V412.892L188.211 414.585L189.579 417.292V420Z" fill="white"/>
<path d="M176.579 384.123L175.553 387.169L173.842 389.877L172.132 387.846L171.105 386.154L170.421 384.123L169.737 382.092V380.4V377.692L171.105 376.677L173.158 376L175.553 376.677L177.263 377.692V380.4L176.579 384.123Z" fill="white"/>
<path d="M186.5 412.892L188.211 414.585L189.579 417.292V420H158.789V418.646V416.277L159.474 414.585L161.526 412.892M186.5 412.892V409.508L189.579 405.108L191.974 401.723L193 398.677V394.615L191.974 390.892L189.579 388.862L186.5 387.846L182.053 388.862L179.316 390.892L177.263 392.923L175.553 395.631L173.842 398.677L172.132 395.631L169.737 392.923L167.342 390.892L164.947 388.862L162.553 387.846H158.789L155.026 390.892L154 394.615V398.677L156.053 401.723L158.789 405.108L161.526 409.508V412.892M186.5 412.892L181.026 411.877H174.184H167.342L161.526 412.892M175.553 387.169L176.579 384.123L177.263 380.4V377.692L175.553 376.677L173.158 376L171.105 376.677L169.737 377.692V380.4V382.092L170.421 384.123L171.105 386.154L172.132 387.846L173.842 389.877L175.553 387.169Z" stroke="black" stroke-width="4"/>
<path d="M134 419H99.7955H99V416.213L99.7955 413.426L103.773 410.639V406.657L104.568 400.685L105.364 395.111L106.159 391.13L103.773 389.139L102.182 386.75L101.386 384.361V380.38L102.182 377.991L104.568 377.194L106.159 377.991L108.148 379.185L110.932 381.176L112.523 379.185L116.102 376H118.489L120.875 377.991L123.659 381.176L125.25 379.185L127.636 377.194L130.023 376.796L131.614 377.991L132.409 381.176L131.614 385.556L130.023 388.343L127.636 391.13L129.227 395.111L130.023 400.685L130.818 406.657V410.639L133.205 413.426L134 416.213V419Z" fill="white"/>
<path d="M134 419H99.7955H99V416.213L99.7955 413.426L103.773 410.639V406.657L104.568 400.685L105.364 395.111L106.159 391.13L103.773 389.139L102.182 386.75L101.386 384.361V380.38L102.182 377.991L104.568 377.194L106.159 377.991L108.148 379.185L110.932 381.176L112.523 379.185L116.102 376H118.489L120.875 377.991L123.659 381.176L125.25 379.185L127.636 377.194L130.023 376.796L131.614 377.991L132.409 381.176L131.614 385.556L130.023 388.343L127.636 391.13L129.227 395.111L130.023 400.685L130.818 406.657V410.639L133.205 413.426L134 416.213V419Z" fill="white"/>
<path d="M130.818 410.639L133.205 413.426L134 416.213V419H99.7955H99V416.213L99.7955 413.426L103.773 410.639M130.818 410.639V406.657L130.023 400.685L129.227 395.111L127.636 391.13M130.818 410.639L124.852 408.648L117.693 408.25L110.136 408.648L103.773 410.639M127.636 391.13L130.023 388.343L131.614 385.556L132.409 381.176L131.614 377.991L130.023 376.796L127.636 377.194L125.25 379.185L123.659 381.176L120.875 377.991L118.489 376H116.102L112.523 379.185L110.932 381.176L108.148 379.185L106.159 377.991L104.568 377.194L102.182 377.991L101.386 380.38V384.361L102.182 386.75L103.773 389.139L106.159 391.13M127.636 391.13L122.864 390.333H116.898H111.727L106.159 391.13M106.159 391.13L105.364 395.111L104.568 400.685L103.773 406.657V410.639" stroke="black" stroke-width="4"/>
<path d="M191 200H156.795H156V197.213L156.795 194.426L160.773 191.639V187.657L161.568 181.685L162.364 176.111L163.159 172.13L160.773 170.139L159.182 167.75L158.386 165.361V161.38L159.182 158.991L161.568 158.194L163.159 158.991L165.148 160.185L167.932 162.176L169.523 160.185L173.102 157H175.489L177.875 158.991L180.659 162.176L182.25 160.185L184.636 158.194L187.023 157.796L188.614 158.991L189.409 162.176L188.614 166.556L187.023 169.343L184.636 172.13L186.227 176.111L187.023 181.685L187.818 187.657V191.639L190.205 194.426L191 197.213V200Z" fill="white"/>
<path d="M191 200H156.795H156V197.213L156.795 194.426L160.773 191.639V187.657L161.568 181.685L162.364 176.111L163.159 172.13L160.773 170.139L159.182 167.75L158.386 165.361V161.38L159.182 158.991L161.568 158.194L163.159 158.991L165.148 160.185L167.932 162.176L169.523 160.185L173.102 157H175.489L177.875 158.991L180.659 162.176L182.25 160.185L184.636 158.194L187.023 157.796L188.614 158.991L189.409 162.176L188.614 166.556L187.023 169.343L184.636 172.13L186.227 176.111L187.023 181.685L187.818 187.657V191.639L190.205 194.426L191 197.213V200Z" fill="white"/>
<path d="M187.818 191.639L190.205 194.426L191 197.213V200H156.795H156V197.213L156.795 194.426L160.773 191.639M187.818 191.639V187.657L187.023 181.685L186.227 176.111L184.636 172.13M187.818 191.639L181.852 189.648L174.693 189.25L167.136 189.648L160.773 191.639M184.636 172.13L187.023 169.343L188.614 166.556L189.409 162.176L188.614 158.991L187.023 157.796L184.636 158.194L182.25 160.185L180.659 162.176L177.875 158.991L175.489 157H173.102L169.523 160.185L167.932 162.176L165.148 160.185L163.159 158.991L161.568 158.194L159.182 158.991L158.386 161.38V165.361L159.182 167.75L160.773 170.139L163.159 172.13M184.636 172.13L179.864 171.333H173.898H168.727L163.159 172.13M163.159 172.13L162.364 176.111L161.568 181.685L160.773 187.657V191.639" stroke="black" stroke-width="4"/>
<path d="M15.398 20.1217L15.3863 30.955L11.3239 30.9507L11.3355 20.1173L15.398 20.1217ZM15.3662 49.6835L15.3545 60.5168L11.292 60.5125L11.3037 49.6791L15.3662 49.6835ZM15.3344 79.2453L15.3227 90.0786L11.2602 90.0742L11.2719 79.2409L15.3344 79.2453ZM15.3025 108.807L15.2909 119.64L11.2284 119.636L11.24 108.803L15.3025 108.807ZM15.2707 138.369L15.259 149.202L11.1965 149.198L11.2082 138.364L15.2707 138.369ZM15.2389 167.931L15.2272 178.764L11.1647 178.76L11.1764 167.926L15.2389 167.931ZM15.207 197.492L15.1954 208.326L11.1329 208.321L11.1445 197.488L15.207 197.492ZM15.1752 227.054L15.1635 237.888L11.101 237.883L11.1127 227.05L15.1752 227.054ZM15.1434 256.616L15.1317 267.449L11.0692 267.445L11.0809 256.612L15.1434 256.616ZM15.1116 286.178L15.0999 297.011L11.0374 297.007L11.0491 286.173L15.1116 286.178ZM15.0797 315.74L15.0681 326.573L11.0056 326.568L11.0172 315.735L15.0797 315.74ZM15.0479 345.301L15.0362 356.135L10.9737 356.13L10.9854 345.297L15.0479 345.301ZM15.0161 374.863L15.0044 385.696L10.9419 385.692L10.9536 374.859L15.0161 374.863ZM14.9842 404.425L14.9726 415.258L10.9101 415.254L10.9217 404.42L14.9842 404.425ZM14.9524 433.987L14.9407 444.82L10.8782 444.816L10.8899 433.982L14.9524 433.987ZM14.9206 463.548L14.9089 474.382L10.8464 474.377L10.8581 463.544L14.9206 463.548ZM14.8887 493.11L14.8771 503.944L10.8146 503.939L10.8263 493.106L14.8887 493.11ZM14.8569 522.672L14.8453 533.505L10.7828 533.501L10.7944 522.668L14.8569 522.672ZM-19.602 20.084L-19.6136 30.9174L-23.6761 30.913L-23.6645 20.0797L-19.602 20.084ZM-19.6338 49.6458L-19.6455 60.4791L-23.708 60.4748L-23.6963 49.6414L-19.6338 49.6458ZM-19.6656 79.2076L-19.6773 90.0409L-23.7398 90.0366L-23.7281 79.2032L-19.6656 79.2076Z" fill="#3F3F3F"/>
</g>
<defs>
<clipPath id="clip0_503_2">
<rect width="677" height="551" fill="white"/>
</clipPath>
</defs>
</svg>
