<svg width="515" height="672" viewBox="0 0 515 672" fill="none" xmlns="http://www.w3.org/2000/svg" xmlns:xlink="http://www.w3.org/1999/xlink">
<g clip-path="url(#clip0_510_269)">
<rect width="515" height="672" fill="white"/>
<rect x="0.00390625" y="-0.246094" width="515" height="672" fill="black"/>
<rect x="15.0039" y="19.7539" width="483" height="630" fill="white"/>
<rect x="26.0049" y="33.7539" width="462" height="602" fill="black"/>
<rect x="33.0039" y="41" width="450" height="587" fill="white"/>
<rect x="258.004" y="260" width="225" height="36" fill="black"/>
<path d="M260.112 274.672H317.112V279.672H260.112V274.672Z"/>
<rect x="33.0039" y="41" width="455" height="73" fill="#010101"/>
<path d="M75.3661 95.743V55.0359H70.543V46.9679H87.0794V45.1342H81.5673V40H96.3812V45.1342H91.558V46.9679H140.823V45.1342H136V40H150.125V45.1342H145.99V46.9679H161.838V55.0359H156.67V95.743H161.838V102.711H70.543V95.743H75.3661Z" fill="white" stroke="white" stroke-width="0.952381"/>
<ellipse cx="94.3141" cy="76.995" rx="15.5016" ry="16.4852" fill="black"/>
<ellipse cx="93.9696" cy="77.3659" rx="12.4013" ry="13.1882" fill="white"/>
<ellipse cx="93.9687" cy="77.3576" rx="11.0234" ry="11.7228" fill="black"/>
<rect x="93.2803" y="70.0332" width="1.37792" height="9.52478" fill="#D9D9D9"/>
<rect width="1.46533" height="9.73679" transform="matrix(-0.015551 0.999879 -0.999846 -0.0175865 102.259 77.5156)" fill="#D9D9D9"/>
<ellipse cx="137.717" cy="76.995" rx="15.5016" ry="16.4852" fill="black"/>
<ellipse cx="137.373" cy="77.3659" rx="12.4013" ry="13.1882" fill="white"/>
<ellipse cx="137.371" cy="77.3576" rx="11.0234" ry="11.7228" fill="black"/>
<rect x="136.686" y="70.0332" width="1.37792" height="9.52478" fill="#D9D9D9"/>
<rect width="1.46533" height="9.73679" transform="matrix(-0.015551 0.999879 -0.999846 -0.0175865 145.661 77.5156)" fill="#D9D9D9"/>
<rect x="394.318" y="428.164" width="86" height="34" fill="black"/>
<rect x="309.004" y="324" width="179" height="52" fill="black"/>
<rect x="398.318" y="431.164" width="78" height="30" fill="white"/>
<rect x="319.004" y="329" width="161" height="40" fill="white"/>
<rect x="403.318" y="433.164" width="71" height="25" fill="black"/>
<path d="M483.318 615.156V627.307C483.318 628.885 482.039 630.164 480.461 630.164H413.988C412.41 630.164 411.131 628.885 411.131 627.307V615.156C411.131 614.403 411.428 613.68 411.959 613.145L415.64 609.431C416.176 608.89 416.907 608.585 417.669 608.585H419.128C420.618 608.585 421.825 607.377 421.825 605.888V598.795C421.825 598.49 421.874 598.188 421.97 597.899L423.356 593.703C423.405 593.554 423.466 593.41 423.539 593.272L428.242 584.309L432.375 577.532C432.471 577.375 432.582 577.227 432.707 577.091L438.936 570.282L440.763 568.44C441.869 567.324 441.078 565.427 439.507 565.427C439.136 565.427 438.774 565.311 438.473 565.094L435.58 563.008C435.324 562.824 435.039 562.683 434.737 562.592L430.604 561.341C430.108 561.191 429.581 561.178 429.078 561.305L423.736 562.653C423.532 562.704 423.335 562.778 423.148 562.872L418.265 565.335C418.143 565.396 418.018 565.449 417.889 565.492L414.804 566.53C413.852 566.85 412.802 566.647 412.038 565.995L407.32 561.967C406.685 561.424 406.318 560.63 406.318 559.794V555.968C406.318 555.125 406.691 554.324 407.337 553.781L409.527 551.94L418.082 542.769L426.103 534.138L432.344 527.317C432.461 527.189 432.589 527.072 432.728 526.967L436.495 524.117C436.696 523.965 436.916 523.84 437.15 523.746L440.561 522.369C441.536 521.975 442.217 521.078 442.332 520.032L443.594 508.566C443.682 507.768 444.357 507.164 445.159 507.164C445.622 507.164 446.06 507.367 446.359 507.719L451.922 514.266C452.174 514.563 452.363 514.909 452.477 515.282L454.074 520.518C454.309 521.29 454.86 521.926 455.59 522.27L462.165 525.365C462.364 525.459 462.551 525.575 462.723 525.711L469.639 531.194C469.846 531.357 470.028 531.549 470.182 531.762L474.228 537.375L477.66 542.321C477.866 542.617 478.013 542.95 478.095 543.301L480.035 551.62C480.085 551.833 480.11 552.051 480.11 552.269V562.73V573.764C480.11 573.96 480.09 574.156 480.05 574.348L478.024 584.054C477.989 584.223 477.938 584.39 477.873 584.55L474.228 593.48L470.247 601.512C470.052 601.906 469.95 602.34 469.95 602.781V605.888C469.95 607.377 471.158 608.585 472.648 608.585H476.78C477.542 608.585 478.273 608.89 478.809 609.431L482.49 613.145C483.021 613.68 483.318 614.403 483.318 615.156Z" fill="black"/>
<path d="M169.096 557.609L113.324 501.554L169.38 445.782L225.151 501.838L169.096 557.609Z" fill="black"/>
<path d="M169.38 445.875L113.608 389.819L169.664 334.048L225.436 390.103L169.38 445.875Z" fill="black"/>
<path d="M169.664 334.137L113.892 278.081L169.948 222.309L225.72 278.365L169.664 334.137Z" fill="black"/>
<path d="M114.268 166.349L58.2119 222.121L29.2094 192.971L29.2094 139.432L58.496 110.294L114.268 166.349Z" fill="black"/>
<path d="M113.88 278.398L57.8242 334.17L28.8217 305.02L28.8217 251.481L58.1084 222.343L113.88 278.398Z" fill="black"/>
<path d="M113.493 390.439L57.4375 446.211L28.435 417.061L28.435 363.522L57.7216 334.384L113.493 390.439Z" fill="black"/>
<path d="M111.83 502.82L55.7744 558.592L26.7719 529.442L26.7719 475.903L56.0585 446.764L111.83 502.82Z" fill="black"/>
<path d="M169.946 222.404L114.175 166.349L170.23 110.577L226.002 166.633L169.946 222.404Z" fill="black"/>
</g>
<defs>
<clipPath id="clip0_510_269">
<rect width="515" height="672" fill="white"/>
</clipPath>
</defs>
</svg>
