<svg width="604" height="527" viewBox="0 0 604 527" fill="none" xmlns="http://www.w3.org/2000/svg">
<g clip-path="url(#clip0_503_44)">
<rect width="604" height="527" fill="white"/>
<path d="M12.8646 19.3333L12.8646 30.1667L8.80208 30.1667L8.80208 19.3333H12.8646ZM12.8646 48.8951L12.8646 59.7285H8.80208L8.80208 48.8951H12.8646ZM12.8646 78.4569L12.8646 89.2903H8.80208V78.4569H12.8646ZM12.8646 108.019L12.8646 118.852H8.80208L8.80208 108.019H12.8646ZM12.8646 137.581L12.8646 148.414H8.80208L8.80208 137.581H12.8646ZM12.8646 167.142L12.8646 177.976H8.80208V167.142H12.8646ZM12.8646 196.704L12.8646 207.537H8.80208V196.704H12.8646ZM12.8646 226.266L12.8646 237.099H8.80208L8.80208 226.266H12.8646ZM12.8646 255.828L12.8646 266.661H8.80208V255.828H12.8646ZM12.8646 285.39L12.8646 296.223H8.80208V285.39H12.8646ZM12.8646 314.951L12.8646 325.785H8.80208L8.80208 314.951H12.8646ZM12.8646 344.513L12.8646 355.346H8.80208L8.80208 344.513H12.8646ZM12.8646 374.075L12.8646 384.908H8.80208V374.075H12.8646ZM12.8646 403.637L12.8646 414.47H8.80208L8.80208 403.637H12.8646ZM12.8646 433.199L12.8646 444.032H8.80208L8.80208 433.199H12.8646ZM12.8646 462.76L12.8646 473.594H8.80208V462.76H12.8646ZM12.8646 492.322L12.8646 503.155H8.80208V492.322H12.8646ZM-22.1354 19.3333V30.1667H-26.1979V19.3333H-22.1354ZM-22.1354 48.8951V59.7285H-26.1979V48.8951H-22.1354ZM-22.1354 78.4569L-22.1354 89.2903H-26.1979L-26.1979 78.4569H-22.1354Z" fill="#3F3F3F"/>
<rect x="90.4121" y="177.457" width="36.5156" height="36.5156" fill="#D9D9D9"/>
<rect x="90.4121" y="250.488" width="36.5156" height="36.5156" fill="#D9D9D9"/>
<rect x="90.4121" y="323.52" width="36.5156" height="36.5156" fill="#D9D9D9"/>
<rect width="36.5156" height="36.5156" transform="matrix(-1 0 0 1 309.506 213.973)" fill="#D9D9D9"/>
<rect width="36.5156" height="36.5156" transform="matrix(-1 0 0 1 309.506 287.004)" fill="#D9D9D9"/>
<rect width="36.5156" height="36.5156" transform="matrix(-1 0 0 1 309.506 360.035)" fill="#D9D9D9"/>
<rect x="163.443" y="177.457" width="36.5156" height="36.5156" fill="#D9D9D9"/>
<rect x="163.443" y="250.488" width="36.5156" height="36.5156" fill="#D9D9D9"/>
<rect x="163.443" y="323.52" width="36.5156" height="36.5156" fill="#D9D9D9"/>
<rect width="36.5156" height="36.5156" transform="matrix(-1 0 0 1 236.475 213.973)" fill="#D9D9D9"/>
<rect width="36.5156" height="36.5156" transform="matrix(-1 0 0 1 236.475 287.004)" fill="#D9D9D9"/>
<rect width="36.5156" height="36.5156" transform="matrix(-1 0 0 1 236.475 360.035)" fill="#D9D9D9"/>
<rect x="236.475" y="177.457" width="36.5156" height="36.5156" fill="#D9D9D9"/>
<rect x="236.475" y="250.488" width="36.5156" height="36.5156" fill="#D9D9D9"/>
<rect x="236.475" y="323.52" width="36.5156" height="36.5156" fill="#D9D9D9"/>
<rect width="36.5156" height="36.5156" transform="matrix(-1 0 0 1 163.443 213.973)" fill="#D9D9D9"/>
<rect width="36.5156" height="36.5156" transform="matrix(-1 0 0 1 163.443 287.004)" fill="#D9D9D9"/>
<rect width="36.5156" height="36.5156" transform="matrix(-1 0 0 1 163.443 360.035)" fill="#D9D9D9"/>
<rect x="126.928" y="177.457" width="36.5156" height="36.5156" fill="#3F3F3F"/>
<rect x="126.928" y="250.488" width="36.5156" height="36.5156" fill="#3F3F3F"/>
<rect x="126.928" y="323.52" width="36.5156" height="36.5156" fill="#3F3F3F"/>
<rect width="36.5156" height="36.5156" transform="matrix(-1 0 0 1 272.99 213.973)" fill="#3F3F3F"/>
<rect width="36.5156" height="36.5156" transform="matrix(-1 0 0 1 272.99 287.004)" fill="#3F3F3F"/>
<rect width="36.5156" height="36.5156" transform="matrix(-1 0 0 1 272.99 360.035)" fill="#3F3F3F"/>
<rect x="199.959" y="177.457" width="36.5156" height="36.5156" fill="#3F3F3F"/>
<rect x="199.959" y="250.488" width="36.5156" height="36.5156" fill="#3F3F3F"/>
<rect x="199.959" y="323.52" width="36.5156" height="36.5156" fill="#3F3F3F"/>
<rect width="36.5156" height="36.5156" transform="matrix(-1 0 0 1 199.959 213.973)" fill="#3F3F3F"/>
<rect width="36.5156" height="36.5156" transform="matrix(-1 0 0 1 199.959 287.004)" fill="#3F3F3F"/>
<rect width="36.5156" height="36.5156" transform="matrix(-1 0 0 1 199.959 360.035)" fill="#3F3F3F"/>
<rect x="272.99" y="177.457" width="36.5156" height="36.5156" fill="#3F3F3F"/>
<rect x="272.99" y="250.488" width="36.5156" height="36.5156" fill="#3F3F3F"/>
<rect x="272.99" y="323.52" width="36.5156" height="36.5156" fill="#3F3F3F"/>
<rect width="36.5156" height="36.5156" transform="matrix(-1 0 0 1 126.928 213.973)" fill="#3F3F3F"/>
<rect width="36.5156" height="36.5156" transform="matrix(-1 0 0 1 126.928 287.004)" fill="#3F3F3F"/>
<rect width="36.5156" height="36.5156" transform="matrix(-1 0 0 1 126.928 360.035)" fill="#3F3F3F"/>
<path d="M88.6309 175.676V398.332H311.287V175.676H88.6309Z" stroke="black" stroke-width="4"/>
<path d="M65.4746 152.52V420.598H333.553V152.52H65.4746Z" stroke="black" stroke-width="4"/>
<path d="M322.42 436.629L333.553 421.043H65.0293V152.074L48.5527 162.762V436.629H322.42Z" fill="black" stroke="black" stroke-width="4"/>
<circle cx="181.5" cy="195.5" r="6.5" fill="white"/>
<circle cx="217.5" cy="195.5" r="6.5" fill="white"/>
<circle cx="254.5" cy="231.5" r="6.5" fill="white"/>
<circle cx="254.5" cy="195.5" r="6.5" fill="white"/>
<circle cx="291.5" cy="231.5" r="6.5" fill="white"/>
<path d="M119 319H99V316.041L99.4494 313.081L100.573 311.26L101.921 309.667L103.944 307.846L105.966 306.48L105.292 305.797L103.494 303.976L102.82 301.699L103.494 299.878L104.618 298.285L106.64 296.691L105.966 295.098V294.187L106.64 291.911L107.764 291H109.562L111.36 291.911L112.034 294.187L111.36 296.691L112.483 297.374L113.831 298.967L115.18 301.699L114.281 304.886L112.483 306.48L115.18 308.756L117.652 311.943L119 316.041V319Z" fill="white" stroke="black" stroke-width="4"/>
<path d="M119 283H99V280.041L99.4494 277.081L100.573 275.26L101.921 273.667L103.944 271.846L105.966 270.48L105.292 269.797L103.494 267.976L102.82 265.699L103.494 263.878L104.618 262.285L106.64 260.691L105.966 259.098V258.187L106.64 255.911L107.764 255H109.562L111.36 255.911L112.034 258.187L111.36 260.691L112.483 261.374L113.831 262.967L115.18 265.699L114.281 268.886L112.483 270.48L115.18 272.756L117.652 275.943L119 280.041V283Z" fill="black" stroke="black"/>
<path d="M156 209H134.5H134V207.25L134.5 205.5L137 203.75V201.25L137.5 197.5L138 194L138.5 191.5L137 190.25L136 188.75L135.5 187.25V184.75L136 183.25L137.5 182.75L138.5 183.25L139.75 184L141.5 185.25L142.5 184L144.75 182H146.25L147.75 183.25L149.5 185.25L150.5 184L152 182.75L153.5 182.5L154.5 183.25L155 185.25L154.5 188L153.5 189.75L152 191.5L153 194L153.5 197.5L154 201.25V203.75L155.5 205.5L156 207.25V209Z" fill="white"/>
<path d="M156 209H134.5H134V207.25L134.5 205.5L137 203.75V201.25L137.5 197.5L138 194L138.5 191.5L137 190.25L136 188.75L135.5 187.25V184.75L136 183.25L137.5 182.75L138.5 183.25L139.75 184L141.5 185.25L142.5 184L144.75 182H146.25L147.75 183.25L149.5 185.25L150.5 184L152 182.75L153.5 182.5L154.5 183.25L155 185.25L154.5 188L153.5 189.75L152 191.5L153 194L153.5 197.5L154 201.25V203.75L155.5 205.5L156 207.25V209Z" fill="white"/>
<path d="M154 203.75L155.5 205.5L156 207.25V209H134.5H134V207.25L134.5 205.5L137 203.75M154 203.75V201.25L153.5 197.5L153 194L152 191.5M154 203.75L150.25 202.5L145.75 202.25L141 202.5L137 203.75M152 191.5L153.5 189.75L154.5 188L155 185.25L154.5 183.25L153.5 182.5L152 182.75L150.5 184L149.5 185.25L147.75 183.25L146.25 182H144.75L142.5 184L141.5 185.25L139.75 184L138.5 183.25L137.5 182.75L136 183.25L135.5 184.75V187.25L136 188.75L137 190.25L138.5 191.5M152 191.5L149 191H145.25H142L138.5 191.5M138.5 191.5L138 194L137.5 197.5L137 201.25V203.75" stroke="black" stroke-width="4"/>
<path d="M300.807 283H281.07V282.138V280.631L281.509 279.554L282.825 278.477V276.323L281.07 273.523L279.316 271.369L278 269.431V266.846L278.658 264.477L281.07 262.538H283.482L285.018 263.185L286.553 264.477L288.088 265.769L289.623 267.492L290.719 269.431L291.816 267.492L292.912 265.769L294.228 264.477L295.982 263.185L298.833 262.538L300.807 263.185L302.342 264.477L303 266.846V269.431L302.342 271.369L300.807 273.523L298.833 276.323V278.477L299.93 279.554L300.807 281.277V283Z" fill="white"/>
<path d="M292.474 260.169L291.816 262.108L290.719 263.831L289.623 262.538L288.965 261.462L288.526 260.169L288.088 258.877V257.8V256.077L288.965 255.431L290.281 255L291.816 255.431L292.912 256.077V257.8L292.474 260.169Z" fill="white"/>
<path d="M298.833 278.477L299.93 279.554L300.807 281.277V283H281.07V282.138V280.631L281.509 279.554L282.825 278.477M298.833 278.477V276.323L300.807 273.523L302.342 271.369L303 269.431V266.846L302.342 264.477L300.807 263.185L298.833 262.538L295.982 263.185L294.228 264.477L292.912 265.769L291.816 267.492L290.719 269.431L289.623 267.492L288.088 265.769L286.553 264.477L285.018 263.185L283.482 262.538H281.07L278.658 264.477L278 266.846V269.431L279.316 271.369L281.07 273.523L282.825 276.323V278.477M298.833 278.477L295.325 277.831H290.939H286.553L282.825 278.477M291.816 262.108L292.474 260.169L292.912 257.8V256.077L291.816 255.431L290.281 255L288.965 255.431L288.088 256.077V257.8V258.877L288.526 260.169L288.965 261.462L289.623 262.538L290.719 263.831L291.816 262.108Z" stroke="black" stroke-width="4"/>
<path d="M300.807 208H281.07V207.138V205.631L281.509 204.554L282.825 203.477V201.323L281.07 198.523L279.316 196.369L278 194.431V191.846L278.658 189.477L281.07 187.538H283.482L285.018 188.185L286.553 189.477L288.088 190.769L289.623 192.492L290.719 194.431L291.816 192.492L292.912 190.769L294.228 189.477L295.982 188.185L298.833 187.538L300.807 188.185L302.342 189.477L303 191.846V194.431L302.342 196.369L300.807 198.523L298.833 201.323V203.477L299.93 204.554L300.807 206.277V208Z" fill="black"/>
<path d="M292.474 185.169L291.816 187.108L290.719 188.831L289.623 187.538L288.965 186.462L288.526 185.169L288.088 183.877V182.8V181.077L288.965 180.431L290.281 180L291.816 180.431L292.912 181.077V182.8L292.474 185.169Z" fill="black"/>
<path d="M298.833 203.477L299.93 204.554L300.807 206.277V208H281.07V207.138V205.631L281.509 204.554L282.825 203.477M298.833 203.477V201.323L300.807 198.523L302.342 196.369L303 194.431V191.846L302.342 189.477L300.807 188.185L298.833 187.538L295.982 188.185L294.228 189.477L292.912 190.769L291.816 192.492L290.719 194.431L289.623 192.492L288.088 190.769L286.553 189.477L285.018 188.185L283.482 187.538H281.07L278.658 189.477L278 191.846V194.431L279.316 196.369L281.07 198.523L282.825 201.323V203.477M298.833 203.477L295.325 202.831H290.939H286.553L282.825 203.477M291.816 187.108L292.474 185.169L292.912 182.8V181.077L291.816 180.431L290.281 180L288.965 180.431L288.088 181.077V182.8V183.877L288.526 185.169L288.965 186.462L289.623 187.538L290.719 188.831L291.816 187.108Z" stroke="black" stroke-width="4"/>
<path d="M297 191.5L294.5 197.5L298.5 193.5L299 192L298 191L297 191.5Z" fill="white"/>
<path d="M284 191.5L286.5 197.5L282.5 193.5L282 192L283 191L284 191.5Z" fill="white"/>
</g>
<defs>
<clipPath id="clip0_503_44">
<rect width="604" height="527" fill="white"/>
</clipPath>
</defs>
</svg>
