<svg width="436" height="622" viewBox="0 0 436 622" fill="none" xmlns="http://www.w3.org/2000/svg">
<g clip-path="url(#clip0_504_103)">
<rect width="436" height="622" fill="black"/>
<rect x="115" width="205" height="41" fill="#D9D9D9"/>
<path d="M39 294.5L-2.25 318.316V270.684L39 294.5Z" fill="#D9D9D9"/>
<path d="M39 368.5L-2.25 392.316V344.684L39 368.5Z" fill="#D9D9D9"/>
<path d="M39 447.5L-2.25 471.316V423.684L39 447.5Z" fill="#D9D9D9"/>
<circle cx="132.376" cy="21.376" r="13.376" fill="black"/>
<path d="M129.449 14.7165C130.521 12.3919 133.825 12.3919 134.897 14.7165L134.958 14.8476C135.395 15.795 136.293 16.4473 137.329 16.5701L137.472 16.5871C140.014 16.8886 141.035 20.0307 139.156 21.7688L139.05 21.8668C138.284 22.5752 137.941 23.6307 138.144 24.654L138.172 24.7955C138.671 27.3064 135.998 29.2484 133.764 27.998L133.639 27.9275C132.728 27.4179 131.618 27.4179 130.708 27.9275L130.582 27.998C128.348 29.2484 125.675 27.3064 126.174 24.7955L126.202 24.654C126.406 23.6306 126.063 22.5752 125.297 21.8668L125.191 21.7688C123.311 20.0307 124.332 16.8886 126.874 16.5871L127.018 16.5701C128.054 16.4473 128.952 15.795 129.389 14.8476L129.449 14.7165Z" fill="white"/>
<path d="M130.468 17.0014C131.219 15.3726 133.534 15.3726 134.285 17.0014V17.0014C134.591 17.6652 135.22 18.1223 135.946 18.2084V18.2084C137.727 18.4195 138.443 20.6211 137.126 21.839V21.839C136.589 22.3353 136.349 23.0749 136.491 23.7919V23.7919C136.841 25.5512 134.968 26.9118 133.403 26.0357V26.0357C132.765 25.6787 131.987 25.6787 131.35 26.0357V26.0357C129.784 26.9118 127.912 25.5512 128.261 23.7919V23.7919C128.404 23.0749 128.163 22.3353 127.627 21.839V21.839C126.31 20.6211 127.025 18.4195 128.806 18.2084V18.2084C129.532 18.1223 130.161 17.6652 130.468 17.0014V17.0014Z" fill="black"/>
<path d="M275 198.5H295C298.314 198.5 301 195.814 301 192.5V185.78C301 184.619 301.344 183.485 301.987 182.519L302.078 182.383C302.679 181.482 303.538 180.785 304.543 180.383C305.175 180.13 305.85 180 306.531 180H310H314C314.828 180 315.5 179.328 315.5 178.5C315.5 178.175 315.605 177.86 315.8 177.6L316.681 176.426C316.893 176.143 317.08 175.841 317.238 175.524L317.594 174.812C317.861 174.278 318 173.689 318 173.092V172.805C318 171.969 317.668 171.168 317.077 170.577C316.699 170.199 316.423 169.73 316.276 169.215L315.731 167.308C315.578 166.772 315.5 166.217 315.5 165.66V163.964C315.5 161.822 314.352 159.844 312.492 158.781C312.165 158.594 311.856 158.376 311.569 158.131L309.762 156.582C308.936 155.874 308.318 154.955 307.974 153.923L307.808 153.424C307.604 152.812 307.5 152.171 307.5 151.526V149.094C307.5 148.699 307.539 148.305 307.617 147.917L307.714 147.432C307.902 146.491 308.313 145.609 308.912 144.86L309.524 144.095C309.84 143.7 310.205 143.346 310.609 143.043L311.368 142.474C311.786 142.16 312.253 141.916 312.75 141.75L313.235 141.588C313.411 141.53 313.594 141.5 313.779 141.5C314.73 141.5 315.5 140.73 315.5 139.779V135.586C315.5 135.196 315.538 134.808 315.615 134.426L315.905 132.976C315.968 132.659 316.057 132.348 316.17 132.046L317.143 129.453C317.379 128.822 317.72 128.236 318.151 127.718L319.506 126.093C319.834 125.699 320.211 125.349 320.628 125.051L322.766 123.524C323.253 123.177 323.788 122.904 324.356 122.715L325.576 122.308C326.188 122.104 326.829 122 327.474 122H328.268C329.081 122 329.885 122.165 330.632 122.485L332.494 123.283C332.831 123.427 333.153 123.602 333.458 123.806L335.506 125.17C335.834 125.39 336.141 125.641 336.42 125.92L337.312 126.812C337.768 127.268 338.147 127.794 338.435 128.371L338.705 128.911C338.901 129.302 339.054 129.714 339.16 130.139L339.5 131.5L339.883 133.417C339.961 133.805 340 134.199 340 134.594V136.5V139V140.5C340 141.052 340.448 141.5 341 141.5H341.336C341.445 141.5 341.554 141.513 341.66 141.54L342.634 141.783C343.208 141.927 343.758 142.155 344.266 142.459L345.075 142.945C345.687 143.312 346.228 143.785 346.674 144.342L347.445 145.306C347.813 145.766 348.111 146.278 348.33 146.826L348.571 147.427C348.854 148.136 349 148.892 349 149.655V151.084C349 152.015 348.783 152.934 348.367 153.767L348.042 154.416C347.684 155.132 347.187 155.768 346.58 156.289L344.561 158.019C344.188 158.339 343.774 158.613 343.336 158.832C341.303 159.849 340 161.936 340 164.208V166.406C340 166.801 339.961 167.195 339.883 167.583L339.733 168.336C339.579 169.105 339.276 169.836 338.842 170.488L338.5 171C337.882 171.928 337.808 173.115 338.306 174.112L338.5 174.5L339.188 175.532C339.392 175.837 339.5 176.196 339.5 176.562C339.5 176.85 339.567 177.134 339.696 177.392L339.829 177.658C339.942 177.883 340 178.131 340 178.382C340 179.276 340.724 180 341.618 180H346H348.026C348.671 180 349.312 180.104 349.924 180.308L350.721 180.574C351.562 180.854 352.326 181.326 352.953 181.953C353.64 182.64 354.14 183.49 354.407 184.423L354.807 185.825C354.935 186.274 355.011 186.735 355.032 187.201L355.24 191.772C355.385 194.977 358.026 197.5 361.233 197.5H383.7C384.557 197.5 385.403 197.683 386.183 198.038L389.291 199.451C390.087 199.812 390.795 200.344 391.364 201.008L392.735 202.608C393.24 203.197 393.626 203.879 393.872 204.615L394.692 207.076C394.896 207.688 395 208.329 395 208.974V212.51C395 213.166 394.893 213.817 394.682 214.438L385.5 241.5L374.5 273.5L370.599 282.863C370.014 284.267 370.784 285.867 372.247 286.285C372.738 286.425 373.175 286.71 373.501 287.102L374.621 288.446C375.2 289.14 375.614 289.955 375.833 290.832L375.915 291.161C376.291 292.662 376.071 294.25 375.304 295.593L375.016 296.098C374.674 296.695 374.233 297.229 373.711 297.676L371 300C368.513 301.99 369.92 306 373.105 306H373.761C374.249 306 374.731 306.099 375.179 306.291L377.494 307.283C377.831 307.427 378.153 307.602 378.458 307.806L381.885 310.09C382.294 310.362 382.667 310.684 382.997 311.047L386.284 314.663C387.077 315.535 387.596 316.621 387.775 317.786L388.347 321.505C388.448 322.164 388.439 322.835 388.32 323.491L387.71 326.844C387.571 327.607 387.286 328.337 386.869 328.992L384.587 332.577C384.199 333.187 383.704 333.722 383.125 334.156L380.779 335.916C380.263 336.303 379.688 336.604 379.076 336.808L376.013 337.829C375.672 337.943 375.321 338.026 374.964 338.077L372.422 338.44C372.141 338.48 371.858 338.5 371.574 338.5H368C366.914 338.5 366.05 339.412 366.109 340.497L368 375L370.5 402L374 435L377.5 470L385.5 506.5L390 527L391.682 532.718C392.189 534.441 393.57 535.768 395.313 536.203C396.093 536.398 396.816 536.776 397.421 537.306L400.5 540L403.493 543.421C403.83 543.805 404.116 544.231 404.344 544.688L406.654 549.309C406.884 549.768 407.053 550.254 407.159 550.756L407.997 554.736C408.582 557.513 411.031 559.5 413.868 559.5H414H419.841C420.279 559.5 420.716 559.548 421.143 559.643L423.906 560.257C424.629 560.418 425.316 560.711 425.933 561.122L429.006 563.17C429.334 563.39 429.641 563.641 429.92 563.92L433 567L434.088 568.36C434.687 569.109 435.098 569.991 435.286 570.932L435.883 573.917C435.961 574.305 436 574.699 436 575.094V596.683C436 597.868 435.649 599.026 434.992 600.012L433.717 601.925C433.244 602.634 432.627 603.233 431.904 603.685L429.804 604.997C429.271 605.33 428.689 605.578 428.08 605.73L425.694 606.327C425.233 606.442 424.76 606.502 424.285 606.506L360.5 607" stroke="white" stroke-width="8"/>
<path d="M239 369H259.5C262.814 369 265.5 371.686 265.5 375V384.5C265.5 387.538 267.962 390 271 390C274.038 390 276.5 387.538 276.5 384.5V375C276.5 371.686 279.186 369 282.5 369H295C298.314 369 301 371.686 301 375V384.75C301 387.649 303.351 390 306.25 390C309.149 390 311.5 387.649 311.5 384.75V375C311.5 371.686 314.186 369 317.5 369H330.242C333.655 369 336.38 371.843 336.237 375.252L334.554 415.217C334.518 416.063 334.304 416.891 333.926 417.648L333.817 417.865C333.607 418.287 333.347 418.682 333.043 419.043L316.836 438.316C315.675 439.698 315.197 441.529 315.535 443.303L335.069 545.625C335.609 548.454 338.1 550.5 340.98 550.5C344.293 550.5 347 553.186 347 556.5V557C347 560.314 349.686 563 353 563H354.227C355.066 563 355.896 563.176 356.664 563.517L358.982 564.548C359.655 564.847 360.267 565.267 360.788 565.788L362.5 567.5L363.998 568.998C364.657 569.657 365.153 570.46 365.448 571.344L365.692 572.076C365.896 572.688 366 573.329 366 573.974V578L367 587V601C367 604.314 364.314 607 361 607H304H149.5" stroke="white" stroke-width="8"/>
<rect x="15" y="587" width="141" height="24" fill="white"/>
</g>
<defs>
<clipPath id="clip0_504_103">
<rect width="436" height="622" fill="white"/>
</clipPath>
</defs>
</svg>
