<svg width="1070" height="969" viewBox="0 0 1070 969" fill="none" xmlns="http://www.w3.org/2000/svg">
<path d="M829.371 587.875L819.697 590.935C819.025 591.147 818.395 591.455 817.828 591.846L810.923 596.609C810.481 596.914 810.082 597.267 809.734 597.661L806.239 601.618L802.647 606.537C802.427 606.838 802.236 607.156 802.078 607.488L799.391 613.095L795.759 620.932L793.028 628.681L791.34 635.745C791.246 636.142 791.194 636.547 791.186 636.953L790.834 655.581C790.824 656.078 790.881 656.575 791.002 657.06L794.068 669.327C794.2 669.856 794.408 670.367 794.687 670.847L802.921 685.016C803.244 685.572 803.659 686.08 804.151 686.522L811.768 693.371C812.305 693.855 812.928 694.253 813.609 694.549L825.063 699.53L827.366 700.313C831.184 701.611 832.891 705.664 831.007 708.958L830.453 709.927C830.167 710.428 829.806 710.891 829.381 711.303L824.297 716.23L812.656 725.683L810.443 727.21C809.153 728.1 808.254 729.381 807.91 730.822L807.457 732.718C807.302 733.366 807.263 734.033 807.341 734.692L807.488 735.947C807.631 737.159 808.164 738.305 809.02 739.242L809.568 739.841C811.019 741.429 813.245 742.251 815.5 742.03L828.659 740.742C829.456 740.664 830.255 740.878 830.878 741.337C831.53 741.816 831.934 742.519 831.994 743.28L835.714 789.929L837.524 813.027L838.27 827.086L838.434 836.214L837.962 842.127C837.809 844.04 836.177 845.579 834.085 845.784C832.002 845.988 830.374 847.516 830.21 849.419L829.34 859.549L825.969 877.336L821.6 892.096C821.472 892.528 821.293 892.946 821.066 893.343L812.342 908.597L801.922 924.586C801.174 925.735 800.854 927.073 801.01 928.402L801.857 935.59C801.969 936.543 802.323 937.459 802.891 938.266L807.499 944.816L811.159 949.552C812.252 950.966 812.644 952.734 812.24 954.425L809.947 964.02C809.865 964.364 809.844 964.718 809.885 965.068C810.112 966.99 812.101 968.317 814.179 967.934L997.316 934.123C999.185 933.778 999.767 931.605 998.283 930.513C998.11 930.386 997.959 930.236 997.834 930.069L991.547 921.629C990.195 919.814 990 917.483 991.034 915.503L994.487 908.888C995.026 907.857 995.24 906.709 995.107 905.573L993.717 893.784C993.5 891.942 992.389 890.287 990.688 889.273L982.596 884.448L968.681 876.349C968.179 876.057 967.721 875.706 967.32 875.304L956.565 864.552L947.569 854.367C947.259 854.017 946.993 853.637 946.774 853.233L938.959 838.843L933.16 828.317C932.466 827.058 930.987 826.323 929.449 826.473C927.772 826.637 926.184 825.749 925.585 824.312L912.628 793.206L905.704 773.101L902.45 760.951L898.296 748.888L894 734.846C893.901 734.523 893.831 734.192 893.792 733.858C893.397 730.504 896.059 727.494 899.738 727.133L910.628 726.067C913.868 725.75 916.211 723.1 915.864 720.147C915.708 718.827 915.022 717.606 913.939 716.72L907.41 711.378C906.84 710.911 906.186 710.536 905.477 710.268L896.55 706.897C896.224 706.773 895.908 706.627 895.607 706.459L884.121 700.051C883.631 699.778 883.181 699.449 882.782 699.072L880.992 697.381C878.362 694.896 878.476 690.93 881.245 688.574L891.395 679.937C892.293 679.173 892.947 678.201 893.285 677.125L899.695 656.773C899.936 656.006 900.012 655.203 899.919 654.409L897.446 633.422C897.382 632.877 897.238 632.342 897.019 631.831L889.815 615.05L884.482 603.316C883.951 602.147 883.038 601.155 881.868 600.473L864.979 590.644C864.399 590.306 863.766 590.051 863.101 589.887L848.443 586.272C847.631 586.071 846.785 586.011 845.948 586.093L830.87 587.569C830.359 587.619 829.857 587.721 829.371 587.875Z" fill="white"/>
<path d="M290.878 486.092L256.843 476.27C252.865 475.122 248.704 477.492 248.092 481.254L241.112 524.135C240.983 524.931 240.684 525.695 240.233 526.387L224.629 550.306C222.691 553.277 218.456 554.221 215.232 552.4L198.747 543.087C194.844 540.882 189.716 542.778 188.601 546.838L183.747 564.51C183.619 564.973 183.434 565.422 183.193 565.846L167.65 593.255C167.137 594.16 166.386 594.935 165.465 595.511L153.431 603.041C151.422 604.298 148.828 604.476 146.635 603.506L3.81854 540.319C1.48291 539.285 0 537.126 0 534.76V6.18577C0 1.70036 5.07816 -1.29041 9.56413 0.552999L275.841 109.973C278.071 110.89 279.504 112.912 279.504 115.142C279.504 117.506 281.114 119.622 283.543 120.451L304.535 127.616L328.522 136.159L342.641 142.962C344.862 144.032 346.252 146.134 346.252 148.424V193.721C346.252 194.571 346.059 195.413 345.686 196.193L332.665 223.379C330.71 227.461 333.991 232.03 338.877 232.03H368.547C368.979 232.03 369.409 231.992 369.833 231.918L401.527 226.335L450.544 212.096L481.832 201.655L530.276 185.707C530.658 185.581 531.026 185.425 531.377 185.239L575.07 162.119C575.486 161.899 575.927 161.719 576.384 161.584L612.352 150.967C613.612 150.595 614.725 149.895 615.554 148.952L624.764 138.474C626.05 137.01 627.996 136.159 630.054 136.159H646.751C647.353 136.159 647.952 136.232 648.532 136.376L679.976 144.181C681.34 144.519 682.555 145.239 683.448 146.238L718.183 185.078C718.445 185.371 718.735 185.641 719.051 185.885L739.435 201.655L803.105 239.976C803.761 240.371 804.487 240.659 805.252 240.827L834.341 247.218L906.716 260.941C908.457 261.271 909.985 262.211 910.973 263.559L938.634 301.323L955.321 326.952L976.18 366.82L1013.72 428.519L1041.88 486.422L1068.46 543.162C1068.81 543.929 1069 544.754 1069 545.588V562.934C1069 564.401 1068.43 565.821 1067.38 566.939L1053.3 582.018C1052.01 583.397 1050.13 584.192 1048.14 584.192H1023.5C1022.56 584.192 1021.62 584.011 1020.76 583.661L1004.18 576.956C1003.59 576.718 1003.05 576.406 1002.56 576.028L976.719 556.13C976.36 555.854 976.034 555.545 975.746 555.207L967.924 546.055C964.926 542.547 958.967 542.987 956.628 546.889L956.151 547.686C955.606 548.594 955.321 549.613 955.321 550.648V613.805C955.321 614.311 955.253 614.815 955.118 615.306L949.567 635.516C949.239 636.71 948.527 637.788 947.522 638.611L940.567 644.308C939.322 645.327 937.709 645.891 936.036 645.891H922.294C921.377 645.891 920.47 645.722 919.627 645.393L900.202 637.816C899.41 637.507 898.693 637.063 898.074 636.517C893.568 632.545 885.159 625.958 881.273 625.958C877.304 625.958 873.649 607.049 872.106 596.22C871.957 595.176 871.53 594.186 870.849 593.335L864.419 585.287C863.842 584.565 863.444 583.738 863.251 582.863L857.418 556.316C857.33 555.916 857.286 555.51 857.286 555.102V512.534C857.286 509.122 854.251 506.355 850.507 506.355H844.268C842.578 506.355 840.95 505.78 839.701 504.743L819.1 487.623C818.156 486.838 816.987 486.313 815.729 486.107L778.078 479.957C777.351 479.838 776.65 479.611 776.003 479.287L747.508 464.978C746.995 464.72 746.448 464.524 745.879 464.395L709.19 456.047L674.824 445.007C674.1 444.775 673.339 444.656 672.571 444.656H665.028C663.895 444.656 662.78 444.915 661.786 445.409L641.029 455.713C640.583 455.935 640.11 456.11 639.62 456.235L618.287 461.696C613.263 462.982 611.651 468.743 615.384 472.066L653.915 506.355L681.677 531.623C681.941 531.864 682.227 532.084 682.531 532.281L717.939 555.301C718.363 555.576 718.75 555.895 719.094 556.251L755.728 594.224C755.99 594.496 756.226 594.789 756.432 595.099L776.661 625.478C776.874 625.797 777.054 626.133 777.2 626.482L793.667 665.825L803.884 702.088C804.025 702.591 804.097 703.107 804.097 703.625V722.579C804.097 723.338 803.943 724.091 803.643 724.8L794.762 745.816C794.066 747.464 792.629 748.762 790.814 749.381L778.13 753.71C777.37 753.97 776.565 754.103 775.753 754.103H757.349C756.538 754.103 755.733 753.97 754.972 753.71L740.344 748.718C739.741 748.512 739.173 748.229 738.658 747.877L718.577 734.169L682.074 702.845L632.014 661.079L584.039 625.958L509.991 584.192L438.471 549.785C437.496 549.316 436.41 549.071 435.307 549.071H380.986C379.431 549.071 377.923 548.583 376.716 547.69L328.522 512.051L292.968 487.088C292.341 486.647 291.633 486.31 290.878 486.092Z" fill="white"/>
<path d="M829.371 587.875L819.697 590.935C819.025 591.147 818.395 591.455 817.828 591.846L810.923 596.609C810.481 596.914 810.082 597.267 809.734 597.661L806.239 601.618L802.647 606.537C802.427 606.838 802.236 607.156 802.078 607.488L799.391 613.095L795.759 620.932L793.028 628.681L791.34 635.745C791.246 636.142 791.194 636.547 791.186 636.953L790.834 655.581C790.824 656.078 790.881 656.575 791.002 657.06L794.068 669.327C794.2 669.856 794.408 670.367 794.687 670.847L802.921 685.016C803.244 685.572 803.659 686.08 804.151 686.522L811.768 693.371C812.305 693.855 812.928 694.253 813.609 694.549L825.063 699.53L827.366 700.313C831.184 701.611 832.891 705.664 831.007 708.958L830.453 709.927C830.167 710.428 829.806 710.891 829.381 711.303L824.297 716.23L812.656 725.683L810.443 727.21C809.153 728.1 808.254 729.381 807.91 730.822L807.457 732.718C807.302 733.366 807.263 734.033 807.341 734.692L807.488 735.947C807.631 737.159 808.164 738.305 809.02 739.242L809.568 739.841C811.019 741.429 813.245 742.251 815.5 742.03L828.659 740.742C829.456 740.664 830.255 740.878 830.878 741.337C831.53 741.816 831.934 742.519 831.994 743.28L835.714 789.929L837.524 813.027L838.27 827.086L838.434 836.214L837.962 842.127C837.809 844.04 836.177 845.579 834.085 845.784C832.002 845.988 830.374 847.516 830.21 849.419L829.34 859.549L825.969 877.336L821.6 892.096C821.472 892.528 821.293 892.946 821.066 893.343L812.342 908.597L801.922 924.586C801.174 925.735 800.854 927.073 801.01 928.402L801.857 935.59C801.969 936.543 802.323 937.459 802.891 938.266L807.499 944.816L811.159 949.552C812.252 950.966 812.644 952.734 812.24 954.425L809.947 964.02C809.865 964.364 809.844 964.718 809.885 965.068C810.112 966.99 812.101 968.317 814.179 967.934L997.316 934.123C999.185 933.778 999.767 931.605 998.283 930.513C998.11 930.386 997.959 930.236 997.834 930.069L991.547 921.629C990.195 919.814 990 917.483 991.034 915.503L994.487 908.888C995.026 907.857 995.24 906.709 995.107 905.573L993.717 893.784C993.5 891.942 992.389 890.287 990.688 889.273L982.596 884.448L968.681 876.349C968.179 876.057 967.721 875.706 967.32 875.304L956.565 864.552L947.569 854.367C947.259 854.017 946.993 853.637 946.774 853.233L938.959 838.843L933.16 828.317C932.466 827.058 930.987 826.323 929.449 826.473C927.772 826.637 926.184 825.749 925.585 824.312L912.628 793.206L905.704 773.101L902.45 760.951L898.296 748.888L894 734.846C893.901 734.523 893.831 734.192 893.792 733.858C893.397 730.504 896.059 727.494 899.738 727.133L910.628 726.067C913.868 725.75 916.211 723.1 915.864 720.147C915.708 718.827 915.022 717.606 913.939 716.72L907.41 711.378C906.84 710.911 906.186 710.536 905.477 710.268L896.55 706.897C896.224 706.773 895.908 706.627 895.607 706.459L884.121 700.051C883.631 699.778 883.181 699.449 882.782 699.072L880.992 697.381C878.362 694.896 878.476 690.93 881.245 688.574L891.395 679.937C892.293 679.173 892.947 678.201 893.285 677.125L899.695 656.773C899.936 656.006 900.012 655.203 899.919 654.409L897.446 633.422C897.382 632.877 897.238 632.342 897.019 631.831L889.815 615.05L884.482 603.316C883.951 602.147 883.038 601.155 881.868 600.473L864.979 590.644C864.399 590.306 863.766 590.051 863.101 589.887L848.443 586.272C847.631 586.071 846.785 586.011 845.948 586.093L830.87 587.569C830.359 587.619 829.857 587.721 829.371 587.875Z" stroke="white" stroke-width="1.35568"/>
<path d="M290.878 486.092L256.843 476.27C252.865 475.122 248.704 477.492 248.092 481.254L241.112 524.135C240.983 524.931 240.684 525.695 240.233 526.387L224.629 550.306C222.691 553.277 218.456 554.221 215.232 552.4L198.747 543.087C194.844 540.882 189.716 542.778 188.601 546.838L183.747 564.51C183.619 564.973 183.434 565.422 183.193 565.846L167.65 593.255C167.137 594.16 166.386 594.935 165.465 595.511L153.431 603.041C151.422 604.298 148.828 604.476 146.635 603.506L3.81854 540.319C1.48291 539.285 0 537.126 0 534.76V6.18577C0 1.70036 5.07816 -1.29041 9.56413 0.552999L275.841 109.973C278.071 110.89 279.504 112.912 279.504 115.142C279.504 117.506 281.114 119.622 283.543 120.451L304.535 127.616L328.522 136.159L342.641 142.962C344.862 144.032 346.252 146.134 346.252 148.424V193.721C346.252 194.571 346.059 195.413 345.686 196.193L332.665 223.379C330.71 227.461 333.991 232.03 338.877 232.03H368.547C368.979 232.03 369.409 231.992 369.833 231.918L401.527 226.335L450.544 212.096L481.832 201.655L530.276 185.707C530.658 185.581 531.026 185.425 531.377 185.239L575.07 162.119C575.486 161.899 575.927 161.719 576.384 161.584L612.352 150.967C613.612 150.595 614.725 149.895 615.554 148.952L624.764 138.474C626.05 137.01 627.996 136.159 630.054 136.159H646.751C647.353 136.159 647.952 136.232 648.532 136.376L679.976 144.181C681.34 144.519 682.555 145.239 683.448 146.238L718.183 185.078C718.445 185.371 718.735 185.641 719.051 185.885L739.435 201.655L803.105 239.976C803.761 240.371 804.487 240.659 805.252 240.827L834.341 247.218L906.716 260.941C908.457 261.271 909.985 262.211 910.973 263.559L938.634 301.323L955.321 326.952L976.18 366.82L1013.72 428.519L1041.88 486.422L1068.46 543.162C1068.81 543.929 1069 544.754 1069 545.588V562.934C1069 564.401 1068.43 565.821 1067.38 566.939L1053.3 582.018C1052.01 583.397 1050.13 584.192 1048.14 584.192H1023.5C1022.56 584.192 1021.62 584.011 1020.76 583.661L1004.18 576.956C1003.59 576.718 1003.05 576.406 1002.56 576.028L976.719 556.13C976.36 555.854 976.034 555.545 975.746 555.207L967.924 546.055C964.926 542.547 958.967 542.987 956.628 546.889L956.151 547.686C955.606 548.594 955.321 549.613 955.321 550.648V613.805C955.321 614.311 955.253 614.815 955.118 615.306L949.567 635.516C949.239 636.71 948.527 637.788 947.522 638.611L940.567 644.308C939.322 645.327 937.709 645.891 936.036 645.891H922.294C921.377 645.891 920.47 645.722 919.627 645.393L900.202 637.816C899.41 637.507 898.693 637.063 898.074 636.517C893.568 632.545 885.159 625.958 881.273 625.958C877.304 625.958 873.649 607.049 872.106 596.22C871.957 595.176 871.53 594.186 870.849 593.335L864.419 585.287C863.842 584.565 863.444 583.738 863.251 582.863L857.418 556.316C857.33 555.916 857.286 555.51 857.286 555.102V512.534C857.286 509.122 854.251 506.355 850.507 506.355H844.268C842.578 506.355 840.95 505.78 839.701 504.743L819.1 487.623C818.156 486.838 816.987 486.313 815.729 486.107L778.078 479.957C777.351 479.838 776.65 479.611 776.003 479.287L747.508 464.978C746.995 464.72 746.448 464.524 745.879 464.395L709.19 456.047L674.824 445.007C674.1 444.775 673.339 444.656 672.571 444.656H665.028C663.895 444.656 662.78 444.915 661.786 445.409L641.029 455.713C640.583 455.935 640.11 456.11 639.62 456.235L618.287 461.696C613.263 462.982 611.651 468.743 615.384 472.066L653.915 506.355L681.677 531.623C681.941 531.864 682.227 532.084 682.531 532.281L717.939 555.301C718.363 555.576 718.75 555.895 719.094 556.251L755.728 594.224C755.99 594.496 756.226 594.789 756.432 595.099L776.661 625.478C776.874 625.797 777.054 626.133 777.2 626.482L793.667 665.825L803.884 702.088C804.025 702.591 804.097 703.107 804.097 703.625V722.579C804.097 723.338 803.943 724.091 803.643 724.8L794.762 745.816C794.066 747.464 792.629 748.762 790.814 749.381L778.13 753.71C777.37 753.97 776.565 754.103 775.753 754.103H757.349C756.538 754.103 755.733 753.97 754.972 753.71L740.344 748.718C739.741 748.512 739.173 748.229 738.658 747.877L718.577 734.169L682.074 702.845L632.014 661.079L584.039 625.958L509.991 584.192L438.471 549.785C437.496 549.316 436.41 549.071 435.307 549.071H380.986C379.431 549.071 377.923 548.583 376.716 547.69L328.522 512.051L292.968 487.088C292.341 486.647 291.633 486.31 290.878 486.092Z" stroke="white" stroke-width="1.35568"/>
</svg>
