<svg width="484" height="590" viewBox="0 0 484 590" fill="none" xmlns="http://www.w3.org/2000/svg">
<path d="M13.3429 435.957L5.74732 439.135C0.95239 441.142 0.107368 447.577 4.2216 450.754L181.76 587.835C182.738 588.59 183.939 589 185.175 589C188.26 589 190.762 586.498 190.762 583.413V569.645C190.762 565.901 193.797 562.867 197.54 562.867H212.571C214.756 562.867 216.807 561.813 218.08 560.037L218.855 558.956C220.045 557.297 220.423 555.19 219.885 553.221L216.408 540.486C216.173 539.626 216.11 538.728 216.223 537.844L220.735 502.433L229.917 465.607C230.04 465.115 230.217 464.638 230.446 464.186L242.676 440.016C243.608 438.174 243.65 436.006 242.789 434.129L241.566 431.463C240.822 429.842 240.747 427.994 241.357 426.318L259.138 377.483L279.745 335.833L296.605 303.983L309.421 280.038C309.618 279.669 309.85 279.319 310.112 278.993L318.982 267.945C321.166 265.224 325.058 264.606 327.977 266.515L359.229 286.951C362.007 288.768 365.69 288.306 367.934 285.861L369.754 283.878C370.901 282.627 371.537 280.992 371.537 279.295V269.211C371.537 268.443 371.407 267.68 371.151 266.955L365.265 250.276C364.503 248.118 364.882 245.721 366.272 243.903L369.006 240.328C370.558 238.297 370.836 235.565 369.725 233.263L365.857 225.254C364.745 222.951 365.023 220.22 366.576 218.189L369.503 214.361C370.785 212.684 372.776 211.7 374.887 211.7H378.73C380.705 211.7 382.581 210.839 383.869 209.342L385.821 207.073C386.879 205.843 387.461 204.275 387.461 202.652V197.101C387.461 195.457 388.059 193.868 389.143 192.632L399.637 180.667L415.56 166.783L426.098 156.83C426.564 156.39 427.09 156.018 427.66 155.726L442.724 148L462.393 139.833L475.572 133.705C476.15 133.436 476.687 133.087 477.168 132.668L480.676 129.609C482.153 128.322 483 126.459 483 124.5V112.7C483 110.741 482.153 108.878 480.676 107.591L477.411 104.744C476.772 104.186 476.033 103.754 475.234 103.469L458.877 97.6345C456.954 96.9484 455.442 95.4317 454.763 93.5059L452.477 87.0281C452.221 86.3035 452.09 85.5407 452.09 84.7724V78.5554C452.09 76.9892 451.548 75.4713 450.555 74.2597L448.595 71.8671C447.818 70.918 446.797 70.1977 445.642 69.7831L435.972 66.3112C433.279 65.3447 431.484 62.7921 431.484 59.9316V57.35V53.7281C431.484 51.4067 432.672 49.2467 434.632 48.0036L448.942 38.9298C450.902 37.6866 452.09 35.5267 452.09 33.2053V30.5127C452.09 28.8613 451.487 27.2667 450.395 26.0283L443.231 17.908C442.894 17.5261 442.515 17.1834 442.101 16.8864L429.706 7.98641C427.888 6.6808 425.542 6.35711 423.438 7.12146L418.714 8.8378C416.727 9.5597 415.19 11.1674 414.559 13.1852L409.941 27.95L408.891 31.3066C407.979 34.2193 404.633 35.5726 401.954 34.1123C400.51 33.3254 398.765 33.3254 397.321 34.1123L397.18 34.1891C394.493 35.6533 391.13 34.4578 389.97 31.6262L388.637 28.3709C387.89 26.5479 386.387 25.14 384.519 24.5136L377.183 22.0534C375.944 21.6378 374.61 21.5894 373.344 21.9142L364.178 24.2647C361.311 24.9999 358.298 23.7899 356.737 21.2758L348.076 7.33457C347.49 6.39259 346.683 5.60857 345.724 5.05128L340.334 1.91808C339.299 1.31675 338.124 1 336.927 1H331.176C329.427 1 327.746 1.67585 326.484 2.8863L321.171 7.98223C319.838 9.26059 319.084 11.0275 319.084 12.8743V36.2759C319.084 36.7132 319.042 37.1494 318.958 37.5785L312.528 70.4167L305.276 95.7072C305.116 96.2667 304.884 96.8033 304.586 97.3036L293.207 116.438C292.378 117.833 291.075 118.884 289.536 119.4L284.368 121.133C281.606 122.059 279.745 124.646 279.745 127.56V133.3V137.539C279.745 139.027 279.255 140.474 278.351 141.656L272.413 149.422C271.13 151.099 269.14 152.083 267.028 152.083H260.551C259.619 152.083 258.697 152.276 257.843 152.648L251.829 155.27C250.579 155.815 249.772 157.048 249.772 158.411V159.941C249.772 162.447 246.732 163.691 244.975 161.904C244.448 161.368 243.729 161.067 242.978 161.067H231.428C230.552 161.067 229.685 161.236 228.873 161.566L220.276 165.065C217.722 166.104 216.052 168.586 216.052 171.343V171.922C216.052 173.849 216.872 175.685 218.307 176.97L245.396 201.246C247.907 203.496 248.383 207.249 246.512 210.055L226.355 240.283L195.445 276.217L168.282 303.983L129.01 339.781C127.761 340.919 126.133 341.55 124.443 341.55H121.126C119.52 341.55 117.967 342.12 116.743 343.158L85.2979 369.812C85.0459 370.026 84.7786 370.221 84.4982 370.396L52.6981 390.2C52.3244 390.433 51.929 390.629 51.5174 390.785L31.7541 398.277C30.9865 398.568 30.1724 398.717 29.3514 398.717H21.4482C17.7046 398.717 14.6699 401.751 14.6699 405.495V413.591C14.6699 414.018 14.7102 414.444 14.7904 414.864L17.3838 428.431C17.9857 431.58 16.2998 434.719 13.3429 435.957Z" fill="white" stroke="white" stroke-width="1.35568"/>
</svg>
