<svg width="1440" height="1100" viewBox="0 0 1440 1100" fill="none" xmlns="http://www.w3.org/2000/svg">
<g clip-path="url(#clip0_445_473)">
<rect width="1440" height="1100" fill="black"/>
<rect x="1017" y="169" width="113" height="113" fill="white"/>
<rect x="678" y="282" width="113" height="113" fill="white"/>
<rect x="1356" y="282" width="113" height="113" fill="white"/>
<rect x="791" y="169" width="113" height="113" fill="white"/>
<rect x="678" y="56" width="113" height="113" fill="white"/>
<rect x="226" y="282" width="113" height="113" fill="white"/>
<rect x="565" y="395" width="113" height="113" fill="white"/>
<rect x="791" y="395" width="113" height="113" fill="white"/>
<rect x="452" y="282" width="113" height="113" fill="white"/>
<rect x="904" y="282" width="113" height="113" fill="white"/>
<rect x="1130" y="282" width="113" height="113" fill="white"/>
<rect x="339" y="395" width="113" height="113" fill="white"/>
<rect x="338" y="169" width="113" height="113" fill="white"/>
<rect x="1017" y="395" width="113" height="113" fill="white"/>
<rect x="1130" y="508" width="113" height="113" fill="white"/>
<rect x="904" y="508" width="113" height="113" fill="white"/>
<rect x="678" y="508" width="113" height="113" fill="white"/>
<rect x="452" y="508" width="113" height="113" fill="white"/>
<rect x="226" y="508" width="113" height="113" fill="white"/>
<rect y="508" width="113" height="113" fill="white"/>
<rect x="113" y="621" width="113" height="113" fill="white"/>
<rect x="226" y="734" width="113" height="113" fill="white"/>
<rect x="113" y="847" width="113" height="113" fill="white"/>
<rect x="339" y="621" width="113" height="113" fill="white"/>
<rect x="565" y="621" width="113" height="113" fill="white"/>
<rect x="791" y="621" width="113" height="113" fill="white"/>
<rect x="1017" y="621" width="113" height="113" fill="white"/>
<rect x="1243" y="621" width="113" height="113" fill="white"/>
<rect x="1243" y="847" width="113" height="113" fill="white"/>
<rect x="1130" y="734" width="113" height="113" fill="white"/>
<rect x="904" y="734" width="113" height="113" fill="white"/>
<rect x="678" y="734" width="113" height="113" fill="white"/>
<rect x="452" y="734" width="113" height="113" fill="white"/>
<rect x="678" y="960" width="113" height="113" fill="white"/>
<rect x="791" y="847" width="113" height="113" fill="white"/>
</g>
<defs>
<clipPath id="clip0_445_473">
<rect width="1440" height="1100" fill="white"/>
</clipPath>
</defs>
</svg>
