<svg width="82" height="93" viewBox="0 0 82 93" fill="none" xmlns="http://www.w3.org/2000/svg">
<path d="M1 92V80.3333H20.0476L13.8571 75.6667L10.0476 71.4667L6.71429 67.7333L4.33333 62.1333L2.42857 57L1.95238 51.8667V44.8667L2.90476 39.7333L5.28571 34.6L8.61905 30.4L12.4286 27.1333L17.6667 25.2667L22.4286 23.8667H28.1429L33.381 24.3333L36.7143 25.7333V17.3333H28.1429V8.93333H36.7143V1H47.1905V8.93333H56.2381V17.3333H47.1905V25.7333L52.9048 24.3333H58.619L65.7619 25.2667L71.9524 28.0667L78.1429 34.6L81 41.6V50L80.0476 57.4667L77.1905 64.4667L72.9048 71.4667L67.6667 77.0667L61.9524 80.3333H81V92H1Z" fill="white" stroke="white" stroke-width="0.952381"/>
</svg>
