<svg width="82" height="93" viewBox="0 0 82 93" fill="none" xmlns="http://www.w3.org/2000/svg">
<path d="M1 92V81.9817H12.4286L30.5238 49.8395L26.2381 47.3349L22.4286 44.4128L19.5714 40.656L17.6667 36.4817V32.7248V28.9679L19.5714 24.3761L23.381 19.367L28.1429 14.3578L32.4286 11.0183L35.7619 8.93119V5.17431L37.6667 2.25229L41 1L44.8095 2.25229L46.7143 5.17431V8.93119L50.0476 11.0183L55.2857 15.6101L60.0476 21.0367L63.381 26.0459L63.8571 31.8899L63.381 36.4817L61 41.9083L57.6667 46.0826L54.3333 49.0046L51.4762 50.2569L69.5714 81.9817H81V92H1Z" fill="white" stroke="white" stroke-width="0.952381"/>
</svg>
