<svg width="94" height="93" viewBox="0 0 94 93" fill="none" xmlns="http://www.w3.org/2000/svg">
<path d="M6.72021 92V81.5161H24.3575L9.10363 36.6452H7.67358H5.76684L2.90674 35.8064L2.43005 34.9677L1.47668 33.7097L1 31.6129V29.5161L2.43005 27.4194L4.33679 26.1613H7.67358L11.0104 27.4194L12.4404 28.6774L13.3938 31.6129L12.4404 34.129L11.0104 35.8064L30.0777 51.3226L45.3316 11.9032L44.3782 11.0645L43.4249 10.2258L41.9948 8.96774L41.0415 7.29032V4.77419L42.4715 2.67742L45.3316 1H48.6684L51.0518 1.83871L52.9585 3.51613L53.4352 6.03226L52.9585 8.54839L51.0518 11.0645L49.1451 11.9032L64.8756 51.3226L82.9896 35.3871L82.513 34.129L81.5596 31.1935L82.513 28.2581L84.4197 26.1613L86.8031 25.7419L89.6632 26.1613L91.5699 27.4194L93 29.5161V32.4516L91.5699 34.9677L88.2332 36.6452H85.3731L69.6425 81.5161H87.2798V92H6.72021Z" fill="white" stroke="white" stroke-width="0.952381"/>
</svg>
