<svg width="234" height="197" viewBox="0 0 234 197" fill="none" xmlns="http://www.w3.org/2000/svg">
<path d="M233.681 8.41307V52.8575H198.442L190.5 56.8258L182.558 64.7623L176.204 74.2861L166.673 81.4289L159.525 89.3655L150.789 101.27L144.435 112.381L138.876 121.111L134.11 132.223L130.933 143.334L126.168 152.858L119.814 149.683L118.226 143.334V136.984V128.254L119.814 119.524L122.991 110.794L126.168 104.445L130.933 92.5401C131.463 90.6882 132.522 86.667 132.522 85.3972C132.522 83.8099 133.316 79.048 132.522 79.048C131.886 79.048 129.61 74.2861 128.551 71.9051L122.991 67.1432H118.226H111.872L107.107 70.3178L101.547 75.8734L99.1644 86.9845L96.7817 94.1274L95.1933 98.8893V104.445L97.576 110.794L99.1644 117.937L99.9586 123.492L101.547 130.635L103.136 136.984V143.334L101.547 148.096L95.1933 149.683L91.2222 144.921L89.6337 136.984L85.6626 125.08L80.1031 110.794L77.7204 101.27V94.1274L79.3088 74.2861L71.3666 79.048L62.6301 83.8099L54.6879 88.5718L45.9514 94.1274L33.2438 104.445L25.3016 110L17.3594 113.969L10.2114 115.556L3.85756 113.969L0.680664 110L22.1247 94.1274H18.1536H10.2114V89.3655L14.1825 85.3972L25.3016 82.2226L39.5976 79.048L44.363 75.0797L61.0417 61.5877L77.7204 48.8893L89.6337 40.1591L111.872 28.2543L138.876 17.9369L160.32 8.41307L176.204 2.85751L192.089 0.476562H204.796L233.681 8.41307Z" fill="white" stroke="white" stroke-width="0.952381"/>
<path d="M126.11 191.717V191.398C126.11 190.694 125.63 190.079 124.946 189.909L124.871 189.89C124.799 189.872 124.726 189.863 124.653 189.863C124.156 189.863 123.753 189.46 123.753 188.963V188.694C123.753 188.382 123.576 188.096 123.296 187.956C122.768 187.693 122.68 186.975 123.129 186.591L123.479 186.292C123.657 186.139 123.784 185.935 123.841 185.707L124.06 184.835C124.226 184.171 124.199 183.474 123.982 182.825C123.831 182.372 123.591 181.955 123.277 181.596L122.985 181.264C122.455 180.66 121.806 180.173 121.078 179.835L120.498 179.565L119.374 179.074C118.956 178.892 118.663 178.507 118.598 178.056L118.573 177.878C118.515 177.474 118.699 177.074 119.044 176.855L119.058 176.846C119.445 176.601 119.619 176.127 119.484 175.69L119.387 175.375C119.313 175.137 119.094 174.975 118.845 174.975C118.622 174.975 118.419 174.844 118.328 174.64L117.58 172.961C116.469 171.115 115.749 169.06 115.463 166.925L115.447 166.804V164.565V162.502C115.447 162.163 115.491 161.825 115.579 161.497C115.785 160.725 116.224 160.036 116.836 159.523L117.32 159.116C117.79 158.721 118.318 158.403 118.885 158.171L120.376 157.563C120.456 157.53 120.528 157.479 120.584 157.413C120.852 157.102 120.694 156.618 120.294 156.524L115.447 155.386L114.339 155.11C113.973 155.019 113.768 154.629 113.901 154.275C113.957 154.126 114.067 154.004 114.21 153.933L116.503 152.789C117.212 152.436 117.835 151.93 118.327 151.308C118.939 150.535 119.328 149.608 119.451 148.628L119.558 147.774C119.66 146.958 119.644 146.131 119.508 145.321L119.263 143.857L119.195 143.634C118.945 142.825 118.501 142.089 117.901 141.491C117.687 141.278 117.492 141.046 117.319 140.799L117.187 140.611C116.925 140.238 116.632 139.89 116.31 139.568L115.896 139.156L115.886 139.147C115.299 138.635 114.621 138.238 113.888 137.977C113.581 137.867 113.266 137.782 112.946 137.722L112.601 137.658C111.956 137.537 111.3 137.477 110.643 137.477H109.274C109.274 137.477 108.049 137.582 107.365 137.812C106.682 138.043 105.794 138.596 105.794 138.596L104.853 139.173C104.51 139.384 104.203 139.649 103.945 139.958C103.831 140.095 103.707 140.223 103.575 140.341L103.487 140.421C102.936 140.915 102.493 141.518 102.186 142.192L101.863 142.901C101.641 143.388 101.47 143.896 101.354 144.419C101.172 145.233 101.124 146.071 101.212 146.9L101.304 147.775L101.529 149.118L101.787 149.956C101.914 150.366 102.092 150.758 102.317 151.123C102.685 151.72 103.174 152.234 103.751 152.633L103.966 152.781C104.212 152.951 104.469 153.103 104.736 153.236L105.232 153.483C105.382 153.558 105.539 153.615 105.702 153.653L107.017 153.962C107.221 154.009 107.365 154.191 107.365 154.401C107.365 154.589 107.248 154.758 107.071 154.824L104.335 155.834L101.49 156.522C101.097 156.617 100.943 157.093 101.207 157.4C101.271 157.474 101.353 157.53 101.446 157.56L103.073 158.101C103.897 158.375 104.626 158.878 105.175 159.552C105.583 160.053 105.88 160.634 106.047 161.259L106.072 161.353C106.186 161.776 106.243 162.213 106.243 162.651V163.457C106.243 164.194 106.17 164.929 106.025 165.652L105.794 166.804L105.354 168.997C105.199 169.772 104.972 170.531 104.678 171.265L104.212 172.428C104.07 172.781 103.879 173.113 103.645 173.413L102.726 174.592C102.537 174.834 102.247 174.975 101.941 174.975C101.553 174.975 101.2 175.201 101.037 175.553L100.959 175.722C100.757 176.157 100.815 176.669 101.108 177.049L101.486 177.539C101.659 177.764 101.753 178.04 101.753 178.323C101.753 178.81 101.478 179.254 101.043 179.471L99.6444 180.169C99.4047 180.288 99.1782 180.433 98.9688 180.6L98.0732 181.314C97.4046 181.848 96.9423 182.597 96.7656 183.434C96.65 183.982 96.6607 184.548 96.7968 185.091L96.9954 185.884C97.0243 185.999 97.0694 186.109 97.1293 186.212L97.2314 186.386C97.5496 186.93 97.3308 187.63 96.7594 187.896C96.3822 188.072 96.141 188.45 96.141 188.866V189.114C96.141 189.553 95.8384 189.933 95.4114 190.031C94.9844 190.129 94.6818 190.509 94.6818 190.947V192.471C94.6818 192.879 94.8444 193.271 95.1338 193.56C95.3513 193.777 95.6287 193.924 95.9303 193.982L101.304 195.012L107.365 195.572H113.988L119.644 195.086C120.211 195.037 120.771 194.92 121.31 194.737L124.792 193.556C125.58 193.289 126.11 192.549 126.11 191.717Z" fill="white" stroke="white" stroke-width="0.952381"/>
</svg>
