<svg width="1440" height="1431" viewBox="0 0 1440 1431" fill="none" xmlns="http://www.w3.org/2000/svg">
<g clip-path="url(#clip0_390_423)">
<rect width="1440" height="1431" fill="black"/>
<rect x="93.4762" y="695.476" width="1286.05" height="617.048" rx="2.38095" fill="white" stroke="black" stroke-width="0.952381"/>
<rect x="1379.62" y="1180.48" width="69.5341" height="72.0175" fill="#010101"/>
<rect x="302" y="902" width="1007" height="71" fill="black"/>
<rect x="302" y="1040" width="872" height="71" fill="black"/>
<rect x="232" y="763" width="1010" height="71" fill="black"/>
<rect x="162" y="1182" width="894" height="71" fill="black"/>
<rect x="1311" y="968" width="68.2925" height="72.0175" fill="#010101"/>
<rect x="1379.62" y="1045.14" width="69.5341" height="70.7758" fill="#010101"/>
<rect x="93.2412" y="1248.77" width="73.2592" height="75.7426" fill="#010101"/>
<rect x="1242" y="1040" width="70.7758" height="70.7758" fill="#010101"/>
<rect x="1311" y="1108" width="69.5341" height="72.0175" fill="#010101"/>
<rect x="1311" y="1249" width="69.5341" height="72.0175" fill="#010101"/>
<rect x="92" y="831.568" width="69.5341" height="72.0175" fill="#010101"/>
<rect x="92" y="691" width="69.5341" height="72.0175" fill="#010101"/>
<rect x="161.534" y="901.104" width="70.7758" height="72.0175" fill="#010101"/>
<rect x="1312" y="763" width="70.7758" height="72.0175" fill="#010101"/>
<rect x="1243" y="1178" width="70.7758" height="70.7758" fill="#010101"/>
<rect x="1174" y="1249" width="69.5341" height="72.0175" fill="#010101"/>
<rect x="93.2412" y="1110.95" width="69.5341" height="70.7758" fill="#010101"/>
<rect x="93.2412" y="968.154" width="69.5341" height="72.0175" fill="#010101"/>
<path d="M161.534 1040.17H232.31V1112.19H161.534V1040.17Z" fill="#010101"/>
<path d="M232 971H302.776V1043.02H232V971Z" fill="#010101"/>
<path d="M-116 594.099V589.704C-116 584.569 -112.607 580.052 -107.676 578.621L-106.988 578.421C-106.399 578.251 -105.789 578.164 -105.176 578.164C-101.586 578.164 -98.675 575.253 -98.675 571.663V567.892C-98.675 565.359 -97.3268 563.018 -95.1363 561.747C-91.0948 559.401 -90.3789 553.86 -93.6915 550.564L-96.537 547.734C-97.9324 546.345 -98.8956 544.582 -99.31 542.658L-100.99 534.861C-102.178 529.342 -101.985 523.616 -100.427 518.191C-99.2687 514.159 -97.3802 510.374 -94.855 507.024L-93.3633 505.045C-89.2525 499.592 -84.0173 495.087 -78.0127 491.835L-74.75 490.067L-67.2936 486.281C-63.7031 484.458 -61.255 480.968 -60.7631 476.971L-60.537 475.133C-60.1434 471.936 -61.5133 468.767 -64.1047 466.853C-67.037 464.687 -68.3615 460.941 -67.4274 457.417L-66.4563 453.754C-65.9957 452.017 -64.4234 450.807 -62.6259 450.807C-60.9841 450.807 -59.5123 449.794 -58.9252 448.261L-53.3 433.571L-45.1756 417.854C-42.3653 412.418 -40.5671 406.515 -39.8686 400.435L-37.625 380.904V361.753V343.836C-37.625 341.106 -37.9335 338.386 -38.5446 335.726C-40.0988 328.961 -43.5638 322.786 -48.5273 317.934L-50.9186 315.597C-54.6802 311.92 -59.025 308.892 -63.7766 306.636L-73.6464 301.95C-74.3709 301.606 -74.9993 301.088 -75.4757 300.443C-77.5096 297.689 -76.143 293.751 -72.8403 292.849L-37.625 283.232L-30.0596 281.037C-26.9755 280.142 -25.2414 276.875 -26.2287 273.819C-26.6609 272.481 -27.5727 271.351 -28.7885 270.645L-42.1353 262.899C-49.437 258.662 -55.4295 252.494 -59.4544 245.073L-60.7855 242.619C-62.7475 239.001 -64.2598 235.157 -65.2886 231.173L-66.6607 225.859C-67.3471 223.201 -67.8155 220.491 -68.0611 217.756L-68.975 207.584V201.878C-68.975 198.205 -68.5742 194.544 -67.7796 190.958L-66.3745 184.617L-65.057 178.494L-62.8612 170.84L-60.2262 164.717L-59.2137 162.56C-58.1336 160.26 -56.8813 158.044 -55.4674 155.932L-54.5171 154.512L-50.5646 149.41L-50.1043 148.875C-48.3648 146.854 -46.4591 144.982 -44.4072 143.279C-42.3674 141.586 -40.1902 140.066 -37.8982 138.735L-34.3156 136.654L-28.6065 134.102L-22.019 132.061L-21.8458 132.004C-17.8881 130.69 -13.7451 130.02 -9.575 130.02L-6.0302 129.64C-2.0646 129.215 1.93745 129.261 5.89219 129.778L7.75 130.02C7.75 130.02 16.7524 130.921 21.775 132.893C26.7976 134.866 33.325 139.596 33.325 139.596L38.2945 143.146C42.1056 145.868 45.4436 149.198 48.175 153.002L49.5252 154.413C54.081 159.172 57.6611 164.777 60.0635 170.911L62.976 178.348C64.1063 181.235 64.9683 184.219 65.5511 187.263L66.6393 192.947C67.5254 197.575 67.759 202.304 67.3335 206.997L66.325 218.117L64.675 229.608L62.666 237.186C61.8081 240.422 60.5832 243.55 59.015 246.508C56.2177 251.784 52.3742 256.434 47.7192 260.175L46.7812 260.928C44.963 262.389 43.037 263.711 41.0197 264.882L37.6337 266.847C36.4164 267.553 35.1125 268.099 33.7548 268.469L24.7507 270.928C22.9937 271.408 21.775 273.004 21.775 274.826C21.775 276.44 22.7362 277.9 24.2195 278.537L44.05 287.062L64.5947 292.843C67.8225 293.751 69.1444 297.608 67.1524 300.305C66.612 301.037 65.8744 301.6 65.026 301.928L54.6838 305.93C47.7516 308.612 41.7739 313.295 37.5114 319.385C34.7465 323.334 32.77 327.781 31.6904 332.48L31.2389 334.445C30.4322 337.956 30.025 341.547 30.025 345.15V357.436C30.025 360.309 30.2702 363.176 30.7581 366.007L33.325 380.904L37.5825 405.612C38.0434 408.287 38.7194 410.921 39.6038 413.487L45.201 429.729C46.08 432.279 47.2853 434.705 48.7871 436.946L56.0531 447.79C57.3167 449.675 59.4372 450.807 61.707 450.807C64.4951 450.807 67.0012 452.507 68.0313 455.098L69.1204 457.837C70.4701 461.231 70.0716 465.071 68.0537 468.116L65.0237 472.688C63.7202 474.655 63.025 476.962 63.025 479.322C63.025 483.602 65.3037 487.559 69.006 489.708L78.2258 495.059C80.1858 496.196 82.0131 497.549 83.6738 499.091L89.1823 504.206C94.6953 509.325 98.4007 516.092 99.7433 523.495C100.557 527.978 100.481 532.578 99.5219 537.032L97.9896 544.146C97.7807 545.116 97.4496 546.055 97.0041 546.941L95.8152 549.307C93.6337 553.648 95.2948 558.936 99.5664 561.25C102.468 562.821 104.275 565.856 104.275 569.155V572.612C104.275 575.887 106.475 578.753 109.637 579.6C112.8 580.447 115 583.314 115 586.588V601.258C115 604.274 113.917 607.19 111.948 609.476C110.18 611.528 107.797 612.955 105.153 613.545L66.325 622.212L21.775 627H-26.9L-67.7708 622.91C-72.4014 622.447 -76.9456 621.346 -81.2743 619.637L-104.992 610.278C-111.635 607.656 -116 601.241 -116 594.099Z" fill="white" stroke="white" stroke-width="0.952381"/>
<path d="M1324 587.099V582.704C1324 577.569 1327.39 573.052 1332.32 571.621L1333.01 571.421C1333.6 571.251 1334.21 571.164 1334.82 571.164C1338.41 571.164 1341.32 568.253 1341.32 564.663V560.892C1341.32 558.359 1342.67 556.018 1344.86 554.747C1348.91 552.401 1349.62 546.86 1346.31 543.564L1343.46 540.734C1342.07 539.345 1341.1 537.582 1340.69 535.658L1339.01 527.861C1337.82 522.342 1338.02 516.616 1339.57 511.191C1340.73 507.159 1342.62 503.374 1345.14 500.024L1346.64 498.045C1350.75 492.592 1355.98 488.087 1361.99 484.835L1365.25 483.067L1372.71 479.281C1376.3 477.458 1378.74 473.968 1379.24 469.971L1379.46 468.133C1379.86 464.936 1378.49 461.767 1375.9 459.853C1372.96 457.687 1371.64 453.941 1372.57 450.417L1373.54 446.754C1374 445.017 1375.58 443.807 1377.37 443.807C1379.02 443.807 1380.49 442.794 1381.07 441.261L1386.7 426.571L1394.82 410.854C1397.63 405.418 1399.43 399.515 1400.13 393.435L1402.38 373.904V354.753V336.836C1402.38 334.106 1402.07 331.386 1401.46 328.726C1399.9 321.961 1396.44 315.786 1391.47 310.934L1389.08 308.597C1385.32 304.92 1380.97 301.892 1376.22 299.636L1366.35 294.95C1365.63 294.606 1365 294.088 1364.52 293.443C1362.49 290.689 1363.86 286.751 1367.16 285.849L1402.38 276.232L1409.94 274.037C1413.02 273.142 1414.76 269.875 1413.77 266.819C1413.34 265.481 1412.43 264.351 1411.21 263.645L1397.86 255.899C1390.56 251.662 1384.57 245.494 1380.55 238.073L1379.21 235.619C1377.25 232.001 1375.74 228.157 1374.71 224.173L1373.34 218.859C1372.65 216.201 1372.18 213.491 1371.94 210.756L1371.03 200.584V194.878C1371.03 191.205 1371.43 187.544 1372.22 183.958L1373.63 177.617L1374.94 171.494L1377.14 163.84L1379.77 157.717L1380.79 155.56C1381.87 153.26 1383.12 151.044 1384.53 148.932L1385.48 147.512L1389.44 142.41L1389.9 141.875C1391.64 139.854 1393.54 137.982 1395.59 136.279C1397.63 134.586 1399.81 133.066 1402.1 131.735L1405.68 129.654L1411.39 127.102L1417.98 125.061L1418.15 125.004C1422.11 123.69 1426.25 123.02 1430.43 123.02L1433.97 122.64C1437.94 122.215 1441.94 122.261 1445.89 122.778L1447.75 123.02C1447.75 123.02 1456.75 123.921 1461.77 125.893C1466.8 127.866 1473.32 132.596 1473.32 132.596L1478.29 136.146C1482.11 138.868 1485.44 142.198 1488.17 146.002L1489.53 147.413C1494.08 152.172 1497.66 157.777 1500.06 163.911L1502.98 171.348C1504.11 174.235 1504.97 177.219 1505.55 180.263L1506.64 185.947C1507.53 190.575 1507.76 195.304 1507.33 199.997L1506.32 211.117L1504.68 222.608L1502.67 230.186C1501.81 233.422 1500.58 236.55 1499.01 239.508C1496.22 244.784 1492.37 249.434 1487.72 253.175L1486.78 253.928C1484.96 255.389 1483.04 256.711 1481.02 257.882L1477.63 259.847C1476.42 260.553 1475.11 261.099 1473.75 261.469L1464.75 263.928C1462.99 264.408 1461.77 266.004 1461.77 267.826C1461.77 269.44 1462.74 270.9 1464.22 271.537L1484.05 280.062L1504.59 285.843C1507.82 286.751 1509.14 290.608 1507.15 293.305C1506.61 294.037 1505.87 294.6 1505.03 294.928L1494.68 298.93C1487.75 301.612 1481.77 306.295 1477.51 312.385C1474.75 316.334 1472.77 320.781 1471.69 325.48L1471.24 327.445C1470.43 330.956 1470.03 334.547 1470.03 338.15V350.436C1470.03 353.309 1470.27 356.176 1470.76 359.007L1473.32 373.904L1477.58 398.612C1478.04 401.287 1478.72 403.921 1479.6 406.487L1485.2 422.729C1486.08 425.279 1487.29 427.705 1488.79 429.946L1496.05 440.79C1497.32 442.675 1499.44 443.807 1501.71 443.807C1504.5 443.807 1507 445.507 1508.03 448.098L1509.12 450.837C1510.47 454.231 1510.07 458.071 1508.05 461.116L1505.02 465.688C1503.72 467.655 1503.02 469.962 1503.02 472.322C1503.02 476.602 1505.3 480.559 1509.01 482.708L1518.23 488.059C1520.19 489.196 1522.01 490.549 1523.67 492.091L1529.18 497.206C1534.7 502.325 1538.4 509.092 1539.74 516.495C1540.56 520.978 1540.48 525.578 1539.52 530.032L1537.99 537.146C1537.78 538.116 1537.45 539.055 1537 539.941L1535.82 542.307C1533.63 546.648 1535.29 551.936 1539.57 554.25C1542.47 555.821 1544.27 558.856 1544.27 562.155V565.612C1544.27 568.887 1546.47 571.753 1549.64 572.6C1552.8 573.447 1555 576.314 1555 579.588V594.258C1555 597.274 1553.92 600.19 1551.95 602.476C1550.18 604.528 1547.8 605.955 1545.15 606.545L1506.32 615.212L1461.77 620H1413.1L1372.23 615.91C1367.6 615.447 1363.05 614.346 1358.73 612.637L1335.01 603.278C1328.37 600.656 1324 594.241 1324 587.099Z" fill="white" stroke="white" stroke-width="0.952381"/>
</g>
<defs>
<clipPath id="clip0_390_423">
<rect width="1440" height="1431" fill="white"/>
</clipPath>
</defs>
</svg>
