<svg width="1263" height="839" viewBox="0 0 1263 839" fill="none" xmlns="http://www.w3.org/2000/svg">
<path d="M1185.61 107.385L1258.02 102.016C1260.71 101.816 1263 103.943 1263 106.639V352.915C1263 356.365 1258.74 357.99 1256.44 355.415C1255.73 354.616 1254.71 354.163 1253.64 354.142C1246.87 354.008 1233.02 353.087 1220.47 350.142C1206.76 346.929 1191.52 344.977 1185.61 344.403L1148.99 338.664C1141.31 336.751 1125.12 332.926 1121.81 332.926H1089.68C1089.44 332.926 1089.2 332.944 1088.97 332.981L1052.7 338.664L1023.16 344.403L990.079 354.16L960.391 366.601C960.098 366.724 959.794 366.816 959.483 366.876L916.083 375.309C915.792 375.365 915.496 375.394 915.199 375.394H825.846C825.458 375.394 825.073 375.345 824.697 375.249L792.155 366.93C791.78 366.834 791.394 366.785 791.007 366.785H764.399C764.018 366.785 763.639 366.832 763.269 366.925L729.563 375.394L690.364 387.329C690.111 387.407 689.864 387.505 689.628 387.625L627.365 419.01L594.017 437.766C593.801 437.887 593.576 437.991 593.344 438.076L572.297 445.813C571.99 445.926 571.679 446.005 571.355 446.05C561.724 447.41 542.346 450 538.163 450H457.597C456.239 450 454.952 449.405 454.072 448.372L440.057 431.94C438.986 430.685 438.663 428.956 439.208 427.4L448.216 401.663C448.319 401.368 448.452 401.084 448.612 400.815L458.781 383.802C458.93 383.553 459.101 383.319 459.293 383.103L473.239 367.387C473.592 366.989 474.011 366.654 474.478 366.399L496.812 354.16L525.167 338.664L571.835 320.3L601.963 307.674L627.365 299.066L653.948 288.162L666.931 281.435C669.329 280.193 669.905 277.02 668.098 275.014C667.727 274.601 667.275 274.268 666.772 274.034L653.948 268.076L627.946 256.287C627.56 256.112 627.153 255.991 626.734 255.927L582.469 249.137L533.437 245.12H505.673C505.28 245.12 504.89 245.07 504.51 244.972L478.499 238.233L465.09 233.348C464.581 233.163 464.044 233.068 463.503 233.068H456.977C455.991 233.068 455.031 233.382 454.236 233.965L424.807 255.543C424.373 255.861 423.886 256.101 423.37 256.253L362.377 274.141C361.819 274.304 361.296 274.572 360.837 274.929L343.81 288.162L310.481 316.564C310.253 316.759 310.006 316.93 309.745 317.077L261.107 344.403L222.118 366.785L184.35 387.106C183.932 387.331 183.483 387.49 183.017 387.579L159.927 391.955C159.643 392.009 159.354 392.037 159.064 392.037H135.279C132.522 392.228 125.946 392.496 121.692 392.037C117.439 391.577 112.831 385.724 111.059 382.854L107.053 376.53C106.583 375.788 106.333 374.927 106.333 374.049V371.781C106.333 369.084 104.04 366.947 101.344 367.008C98.4204 367.073 94.8473 367.051 91.5646 366.785C88.3654 366.526 86.1438 365.646 84.7089 364.722C83.2488 363.782 81.6119 362.768 79.8754 362.768H74.4623C73.6686 362.768 72.8881 362.564 72.1956 362.176L60.2618 355.488C58.7986 354.667 57.8923 353.121 57.8923 351.443V339.788C57.8923 339.049 58.0686 338.322 58.4064 337.666L63.6985 327.384C64.1482 326.51 64.864 325.801 65.7427 325.361L82.1879 317.115C82.5303 316.943 82.8501 316.73 83.14 316.48L93.3368 307.674C95.9001 306.014 96.0023 302.299 93.5339 300.501L93.401 300.404C92.2471 299.563 91.5646 298.221 91.5646 296.794V293.76C91.5646 292.735 91.9044 291.739 92.5309 290.927L98.0327 283.801C98.4417 283.271 98.9604 282.836 99.5535 282.526L105.938 279.186C106.201 279.049 106.476 278.937 106.76 278.852L121.692 274.388L144.731 268.076L163.308 260.744C163.526 260.658 163.749 260.589 163.977 260.537L183.04 256.179C183.491 256.076 183.923 255.906 184.324 255.675L202.236 245.343C202.494 245.195 202.736 245.022 202.96 244.827C206.829 241.467 214.507 234.851 216.801 233.068C219.11 231.274 228.375 224.584 233.023 221.245C233.237 221.091 233.435 220.922 233.62 220.734L246.338 207.817L261.107 195.765L274.103 184.861L294.188 169.366L310.138 155.592L338.749 135.738C338.972 135.584 339.208 135.449 339.454 135.336L351.873 129.621C354.143 128.576 353.398 125.176 350.899 125.176H279.866C279.569 125.176 279.273 125.204 278.982 125.261L256.228 129.682C255.937 129.739 255.641 129.767 255.344 129.767H222.118L183.72 125.176H154.207C153.799 125.176 153.393 125.23 152.999 125.336L122.558 133.551C121.986 133.705 121.395 133.749 120.806 133.679C109.277 132.31 86.8479 129.767 82.7035 129.767C78.5787 129.767 59.6759 122.931 49.9166 119.202C49.3315 118.979 48.7998 118.638 48.3506 118.202L31.3091 101.646L17.9901 87.0194C17.8118 86.8235 17.6506 86.6128 17.5083 86.3894L10.2225 74.9557C10.1027 74.7677 9.99658 74.5713 9.90503 74.368L6.85974 67.6057C6.28015 66.3186 4.99963 65.491 3.58813 65.491C1.60645 65.491 0 63.8845 0 61.9029V61.7607C0 59.7005 1.67004 58.0304 3.73035 58.0304H98.2522C98.5192 58.0304 98.7856 58.0073 99.0487 57.9615L121.297 54.082C121.56 54.0362 121.826 54.0131 122.093 54.0131H144.351C144.604 54.0131 144.856 53.9924 145.106 53.9513L175.665 48.9099C175.915 48.8687 176.167 48.8481 176.42 48.8481H198.042C198.339 48.8481 198.635 48.8196 198.926 48.763L222.118 44.2569L261.107 36.2224L293.795 30.5517C294.056 30.5063 294.322 30.4835 294.587 30.4835H374.696C374.977 30.4835 375.259 30.4578 375.536 30.4067L409.382 24.1706L448.371 19.0056L473.773 19.0056L505.082 15.2934L543.48 9.82329L571.835 3.51045L601.426 0.0624073C601.783 0.0208643 602.143 0.0208642 602.5 0.0624073L631.759 3.47178C631.98 3.49753 632.199 3.53915 632.414 3.59632L676.402 15.2934L719.394 24.1706L775.283 44.2569L832.942 65.491L929.232 92.464L990.079 107.385L1039.11 112.55H1102.32L1185.61 107.385Z" fill="white"/>
<path d="M470.571 429.55L465.032 429.031L431.641 785.438L437.18 785.957L470.571 429.55Z" fill="white"/>
<path d="M488.293 450.339L482.732 450.181L471.785 834.988L477.346 835.146L488.293 450.339Z" fill="white"/>
<path d="M159.573 333.349L154.024 333.742L185.914 783.708L191.464 783.314L159.573 333.349Z" fill="white"/>
<path d="M186.463 347.257L180.913 347.65L213.491 807.31L219.041 806.917L186.463 347.257Z" fill="white"/>
<path d="M95.1133 129.356L89.1169 129.592L116.084 814.543L121.57 817.367L95.1133 129.356Z" fill="white"/>
<path d="M140.114 365.802L134.552 365.89L142.028 835.814L147.591 835.726L140.114 365.802Z" fill="white"/>
<path d="M88.7236 130.666L83.1734 130.283L34.3822 837.639L39.9325 838.022L88.7236 130.666Z" fill="white"/>
<path d="M66.8613 123.793L61.3002 123.954L81.3978 815.935L86.9589 815.774L66.8613 123.793Z" fill="white"/>
</svg>
