<svg width="177" height="271" viewBox="0 0 177 271" fill="none" xmlns="http://www.w3.org/2000/svg">
<path d="M52.7831 269.986L43.8835 238.728L64.0808 232.977L53.2478 138.326L38.3403 142.57L44.3482 107.068L9.24331 117.063L0.617495 86.7673L35.7223 76.7723L12.189 50.7208L46.8129 40.8627L43.5269 29.3214L31.0238 32.8813L27.464 20.3782L39.9671 16.8183L36.4072 4.31521L49.3912 0.618435L52.951 13.1215L64.9733 9.69859L68.5331 22.2017L56.5109 25.6246L59.7969 37.1659L93.94 27.4448L87.6583 61.9852L123.244 51.8533L131.87 82.1493L96.2841 92.2812L120.091 119.294L105.184 123.539L145.832 209.701L166.51 203.814L175.41 235.072L52.7831 269.986Z" fill="black" stroke="black"/>
</svg>
