<svg width="225" height="329" viewBox="0 0 225 329" fill="none" xmlns="http://www.w3.org/2000/svg">
<path d="M0.630247 282.299L12.0361 247.389L34.7553 254.812L87.44 155.502L68.5997 149.346L99.0269 120.038L58.0214 106.64L69.4272 71.7303L91.5923 78.9721L106.076 34.6418L103.305 33.7366L100.716 32.2772L98.4881 29.7096L96.0686 25.8527L94.9384 21.8038L94.5433 17.3817L95.2565 13.3218L95.9806 11.1053L97.8021 7.40744L100.37 5.17993L103.672 2.57934L108.638 0.521888L112.324 0.499899L116.384 1.21308L120.082 3.03452L123.045 5.22905L125.827 7.9777L128.246 11.8346L129.557 15.3294L129.398 19.5704L128.323 24.7386L126.321 28.9906L124.307 31.3991L121.004 33.9997L116.774 35.6841L112.352 36.0792L109.401 35.7281L123.759 63.1105L150.225 49.6795L149.298 48.7633L146.143 45.2795L144.47 42.8929L142.796 40.5063L141.666 36.4574L141.282 33.8788L141.814 30.373L143.082 26.4941L144.722 23.3504L146.916 20.3877L150.038 18.3412L152.979 16.8489L156.847 16.2728L160.534 16.2508L165.148 17.145L169.773 19.8827L172.927 23.3665L175.72 27.9586L176.669 32.5616L176.137 36.0675L174.508 41.0546L172.686 44.7525L169.203 47.9072L166.081 49.9536L162.586 51.2649L158.164 51.66L156.321 51.671L170.86 78.4993L197.507 64.5142L193.244 60.6683L190.462 57.9196L188.767 51.8462L188.553 46.87L190.182 41.8829L192.185 37.6309L195.669 34.4762L198.972 31.8756L204.129 31.1074L210.032 31.8096L213.911 33.0769L217.428 35.4525L221.329 40.4067L222.832 45.1908L223.781 49.7939L222.152 54.781L219.414 59.4061L214.833 64.0421L209.868 66.0996L205.265 67.0488L200.097 65.9735L185.794 109.75L210.176 117.716L198.77 152.626L157.764 139.228L162.801 180.124L146.178 174.693L128.403 285.408L151.676 293.012L140.271 327.922L0.630247 282.299Z" fill="black" stroke="black"/>
</svg>
