<svg width="1440" height="2705" viewBox="0 0 1440 2705" fill="none" xmlns="http://www.w3.org/2000/svg">
<g clip-path="url(#clip0_387_334)">
<rect width="1440" height="2705" fill="white"/>
<path d="M735.509 1424.99L738.007 1429.41C739.484 1432.02 741.639 1434.18 744.244 1435.67C751.594 1439.87 754.625 1448.92 751.291 1456.7L750.926 1457.55C750.251 1459.12 749.352 1460.59 748.255 1461.91L731.823 1481.63L711.327 1508.15L689.296 1545.51C685.657 1551.68 684.711 1559.08 686.679 1565.97C687.822 1569.97 687.993 1574.19 687.177 1578.27L685.505 1586.63C684.241 1592.95 681.986 1599.04 678.825 1604.66L677.17 1607.6C674.234 1612.82 670.598 1617.61 666.363 1621.85L661.253 1626.96C656.093 1632.12 650.083 1636.35 643.487 1639.48L632.947 1644.47C631.367 1645.22 629.64 1645.61 627.891 1645.61C621.367 1645.61 616.079 1650.9 616.079 1657.42V1664.28C616.079 1666.29 615.755 1668.28 615.121 1670.19L612.84 1677.03C610.992 1682.58 608.29 1687.8 604.834 1692.51C599.546 1699.72 592.616 1705.57 584.619 1709.57L575.086 1714.34L563.605 1719.26C554.512 1723.15 546.485 1729.17 540.196 1736.81L537.236 1740.41C534.361 1743.9 532.154 1747.89 530.724 1752.18L528.43 1759.06C526.659 1764.37 527.176 1770.18 529.858 1775.1C531.83 1778.71 534.862 1781.64 538.546 1783.48L545.79 1787.1C548.435 1788.43 551.201 1789.49 554.05 1790.28L559.926 1791.92C567.372 1793.98 573.827 1798.66 578.114 1805.09C581.643 1810.38 583.526 1816.6 583.526 1822.96V1831.15C583.526 1838.42 582.187 1845.63 579.577 1852.41L576.671 1859.97C573.244 1868.88 567.917 1876.94 561.061 1883.58L538.097 1905.83C534.634 1909.18 531.551 1912.91 528.904 1916.94L505.157 1953.07L476.221 2000.1L459.401 2034.73C456.96 2039.76 455.17 2045.07 454.074 2050.55L450.972 2066.06C450.123 2070.31 449.696 2074.62 449.696 2078.95V2097.02C449.696 2101.52 450.159 2106.02 451.077 2110.42L453.892 2123.94C455.1 2129.74 457.508 2135.22 460.96 2140.03C463.791 2143.98 467.278 2147.41 471.268 2150.18L486.939 2161.05C491.814 2164.43 497.125 2167.13 502.726 2169.09L511.613 2172.19C514.521 2173.21 517.227 2174.72 519.61 2176.67C525.724 2181.68 529.27 2189.16 529.27 2197.06V2202.8C529.27 2224.03 512.056 2241.25 490.82 2241.25H428.031C426.013 2241.25 424.377 2242.88 424.377 2244.9C424.377 2246.35 425.227 2247.66 426.547 2248.24L441.408 2254.85C444.498 2256.22 447.312 2258.12 449.74 2260.48C463.366 2273.67 484.325 2293.78 485.871 2294.5C485.633 2294.02 485.615 2293.93 485.866 2294.3C485.994 2294.49 485.992 2294.56 485.871 2294.5C487.119 2297.02 494.41 2310.11 500.532 2321.03C503.595 2326.5 505.872 2332.37 507.281 2338.47L514.325 2369C515.443 2373.85 516.008 2378.8 516.008 2383.78V2414.23C516.008 2421.84 514.686 2429.39 512.102 2436.55L503.812 2459.5C501.507 2465.89 498.228 2471.87 494.091 2477.25L476.221 2500.48L462.416 2514.29C457.978 2518.73 452.926 2522.51 447.416 2525.51L429.199 2535.45L410.985 2543.26C406.265 2545.28 401.324 2546.74 396.263 2547.62L374.458 2551.38C370.77 2552.01 367.034 2552.33 363.292 2552.33H336.457C332.464 2552.33 328.479 2551.97 324.552 2551.24L307.229 2548.05C300.929 2546.89 294.832 2544.82 289.132 2541.89L277.02 2535.68C272.143 2533.17 267.598 2530.07 263.491 2526.44L245.828 2510.82C243.492 2508.76 241.306 2506.53 239.287 2504.15L225.323 2487.72C222.994 2484.98 220.894 2482.05 219.044 2478.97L214.461 2471.33C212.142 2467.47 210.226 2463.37 208.745 2459.11L203.66 2444.49C202.109 2440.03 201.043 2435.42 200.481 2430.74L197.71 2407.64V2381.12L200.698 2357.21C201.117 2353.86 201.792 2350.55 202.719 2347.3L206.15 2335.3L213.524 2318.7C215.035 2315.3 216.833 2312.04 218.897 2308.94L228.383 2294.71C231.234 2290.43 234.578 2286.51 238.344 2283.01L249.554 2272.6L271.256 2256.92L285.089 2248.41C286.233 2247.71 286.93 2246.46 286.93 2245.12C286.93 2242.98 285.198 2241.25 283.062 2241.25H226.767C204.06 2241.25 185.653 2222.84 185.653 2200.14V2193.75C185.653 2187.84 187.812 2182.13 191.724 2177.7C194.039 2175.08 196.894 2172.99 200.092 2171.58L202.257 2170.62C204.842 2169.48 207.557 2168.66 210.341 2168.17L213.238 2167.65C218.929 2166.65 224.435 2164.79 229.57 2162.14L230.497 2161.66C235.136 2159.27 239.376 2156.17 243.067 2152.48L243.488 2152.06C247.499 2148.05 250.756 2143.35 253.104 2138.19C254.75 2134.56 255.932 2130.75 256.623 2126.83L258.199 2117.9C258.865 2114.13 259.199 2110.31 259.199 2106.48V2090.53V2065.21V2055.57C259.199 2046.81 257.449 2038.14 254.05 2030.07L251.599 2024.25C250.238 2021.02 248.62 2017.9 246.761 2014.92L237.497 2000.1L227.753 1979.64C226.214 1976.4 224.413 1973.3 222.368 1970.36L206.15 1947.05L185.653 1922.93L165.157 1892.79L152.875 1878.75C149.819 1875.26 147.141 1871.45 144.887 1867.39L140.61 1859.69C137.697 1854.45 135.516 1848.83 134.127 1843L131.652 1832.6C130.682 1828.53 130.192 1824.36 130.192 1820.17V1812.07C130.192 1807.3 131.533 1802.62 134.061 1798.58L134.691 1797.57C135.704 1795.95 136.969 1794.5 138.438 1793.27C141.68 1790.57 145.765 1789.09 149.984 1789.09H151.974C154.319 1789.09 156.651 1788.74 158.893 1788.05L160.068 1787.69C167.21 1785.49 173.248 1780.66 176.956 1774.17C179.495 1769.73 180.831 1764.7 180.831 1759.58V1757.58C180.831 1754.49 180.333 1751.43 179.357 1748.5C177.947 1744.27 175.572 1740.43 172.42 1737.28L168.928 1733.78C166.421 1731.28 163.653 1729.05 160.671 1727.13L154.077 1722.89C150.234 1720.42 146.03 1718.56 141.616 1717.38C134.133 1715.39 127.309 1711.45 121.833 1705.98L118.919 1703.06C114.407 1698.55 110.653 1693.34 107.799 1687.63L105.302 1682.64C103.413 1678.86 101.893 1674.91 100.762 1670.84L96.743 1656.37C96.5375 1655.63 96.4333 1654.87 96.4333 1654.1C96.4333 1649.41 92.6326 1645.61 87.9441 1645.61H82.5937C80.5911 1645.61 78.6122 1645.17 76.7939 1644.34L69.4706 1640.96C65.7573 1639.24 62.2657 1637.08 59.0723 1634.53L51.8234 1628.73L45.4747 1622.38C40.8908 1617.8 37.0105 1612.56 33.9599 1606.84L32.7222 1604.52C30.194 1599.78 28.2568 1594.74 26.9538 1589.53L25.0348 1581.86C24.4092 1579.35 24.093 1576.78 24.093 1574.2C24.093 1568.84 22.7268 1563.57 20.1235 1558.88L18.0646 1555.18L9.62482 1533.48L-3.63751 1508.15L-16.8999 1488.86L-30.1624 1469.57C-32.8969 1465.19 -29.9911 1459.48 -24.8445 1459.11L702.452 1407.24C715.973 1406.28 728.84 1413.19 735.509 1424.99Z" fill="black" stroke="black" stroke-width="0.952381"/>
<rect x="1363.81" y="1292.33" width="95.2381" height="95.2381" fill="#0B0808"/>
<rect x="-211.098" y="-220.693" width="1810.96" height="1698.42" transform="rotate(-4.36747 -211.098 -220.693)" fill="black"/>
<path d="M724.528 1396.88L722.472 1401.39C719.564 1407.78 724.33 1415.01 731.348 1414.86L1450.05 1399.15C1453.4 1399.08 1455 1395.01 1452.61 1392.67C1452.47 1392.53 1452.34 1392.38 1452.22 1392.22L1443.53 1380.55L1435.13 1370.31C1434.81 1369.92 1434.53 1369.51 1434.28 1369.08L1425.79 1354.57L1418.63 1339.6C1418.23 1338.76 1417.7 1337.99 1417.09 1337.29C1413.93 1333.7 1408.85 1327.39 1408.05 1324.26C1407.42 1321.82 1406.02 1319.22 1404.86 1317.41C1404.08 1316.19 1403.46 1314.87 1403.17 1313.45L1399.18 1293.95C1397.7 1287.1 1393.85 1272.52 1390.31 1269.05L1390.3 1269.05C1385.87 1264.72 1380.33 1259.31 1375.89 1256.06C1371.46 1252.82 1369.24 1252.82 1367.02 1251.73C1365.33 1250.91 1354.07 1248.7 1347.91 1247.56C1347.35 1247.46 1346.78 1247.4 1346.2 1247.4H1344.39C1339.13 1247.4 1334.87 1243.05 1334.87 1237.79C1334.87 1236.99 1334.77 1236.19 1334.57 1235.42L1331.54 1223.59L1325.22 1208.15C1325 1207.62 1324.73 1207.11 1324.42 1206.63L1321.46 1201.99C1320.1 1199.88 1317.97 1198.38 1315.53 1197.83L1306.32 1195.76C1305.4 1195.55 1304.52 1195.21 1303.7 1194.74L1291.63 1187.87L1283.52 1183.91C1283.01 1183.66 1282.53 1183.37 1282.07 1183.04L1273.89 1177.04L1265.02 1169.47L1259.69 1163.52C1258.12 1161.77 1257.26 1159.51 1257.26 1157.16V1149.98V1144.82C1257.26 1141.92 1258.57 1139.19 1260.84 1137.38L1266.85 1132.58C1268.53 1131.23 1270.63 1130.5 1272.79 1130.5H1288.24C1290.43 1130.5 1292.55 1129.74 1294.25 1128.36L1301.42 1122.53C1303.64 1120.72 1304.93 1118.01 1304.93 1115.14V1103.43V1084.97C1304.93 1083.59 1304.63 1082.21 1304.04 1080.95L1299.39 1070.96L1282.76 1036.32L1273.89 1011.42L1257.26 971.37L1244.26 941.772C1244.06 941.298 1243.89 940.808 1243.76 940.306L1237.3 915.08L1229.54 884.77L1219.56 845.8L1214.02 817.656L1208.47 784.098L1205.15 757.036L1201.82 725.644V694.252V629.302V604.405L1205.15 567.6V551.295C1205.15 550.62 1205.22 549.948 1205.36 549.288L1209.58 529.713L1213.59 512.077C1213.87 510.856 1214.39 509.702 1215.11 508.681L1223.99 496.156L1235.08 483.166L1241.2 476.334C1242.28 475.135 1243.64 474.228 1245.16 473.697L1257.45 469.413C1258.06 469.2 1258.69 469.05 1259.33 468.965L1279.27 466.31C1281.52 466.01 1283.59 464.917 1285.11 463.226L1288.09 459.899C1289.65 458.152 1290.52 455.889 1290.52 453.543V414.75C1290.52 409.49 1286.25 405.226 1280.99 405.226H1222.19C1219.51 405.226 1217.34 403.056 1217.34 400.378C1217.34 399.31 1217.69 398.272 1218.35 397.425L1223.99 390.071L1235.08 377.082L1248.39 357.597L1258.37 345.689L1270.56 326.204L1282.76 305.637L1287.19 295.895L1290.52 285.07L1297.17 266.667L1301.37 248.226C1301.53 247.533 1301.61 246.824 1301.61 246.112V227.698V206.097C1301.61 205.345 1301.52 204.596 1301.34 203.865L1297.44 187.664C1297.26 186.933 1297 186.224 1296.65 185.555L1290.52 173.573L1283.34 158.547C1282.95 157.743 1282.46 156.998 1281.87 156.332L1268.34 141.098L1253.41 127.493C1252.3 126.475 1250.95 125.737 1249.49 125.341L1231.76 120.531L1213.71 117.422C1213.18 117.33 1212.63 117.283 1212.09 117.283H1188.39C1187.74 117.283 1187.08 117.351 1186.44 117.485L1171.88 120.531L1155.99 125.704C1155.5 125.863 1155.02 126.062 1154.56 126.299L1136.4 135.686L1121.5 142.961C1121.09 143.162 1120.66 143.328 1120.22 143.457C1115.01 144.983 1109.79 141.077 1109.79 135.648V130.055C1109.79 124.795 1114.06 120.531 1119.32 120.531H1130.21C1135.47 120.531 1139.73 116.267 1139.73 111.007V91.0851C1139.73 85.8252 1135.47 81.5613 1130.21 81.5613H1119.32C1114.06 81.5613 1109.79 77.2973 1109.79 72.0375V61.8578C1109.79 56.5979 1105.53 52.334 1100.27 52.334H1078.29C1073.03 52.334 1068.77 56.5979 1068.77 61.8578V72.0375C1068.77 77.2973 1064.51 81.5613 1059.25 81.5613H1049.47C1044.21 81.5613 1039.94 85.8252 1039.94 91.0851V111.007C1039.94 116.267 1044.21 120.531 1049.47 120.531H1059.25C1064.51 120.531 1068.77 124.795 1068.77 130.055V134.173C1068.77 139.87 1062.8 143.597 1057.68 141.098L1040.88 131.868C1040.26 131.528 1039.6 131.257 1038.92 131.062L1021.09 125.943L1004.04 120.741C1003.58 120.601 1003.12 120.496 1002.64 120.427L982.445 117.469C981.605 117.346 980.753 117.336 979.911 117.438L955.981 120.359C955.045 120.473 954.132 120.725 953.271 121.107L930.935 131.02C930.431 131.243 929.948 131.51 929.49 131.817L913.548 142.518C912.811 143.013 912.148 143.607 911.576 144.285L897.786 160.633C897.209 161.318 896.73 162.081 896.366 162.899L886.34 185.414C886 186.177 885.762 186.981 885.632 187.806L881.509 213.971C881.432 214.461 881.393 214.957 881.393 215.454V251.318C881.393 252.165 881.506 253.009 881.73 253.827L889.955 283.941C890.159 284.691 890.455 285.413 890.835 286.09L915.764 330.534L944.591 371.669L963.884 393.479C965.027 394.771 965.657 396.436 965.657 398.161C965.657 402.063 962.494 405.226 958.592 405.226H899.787C894.527 405.226 890.263 409.49 890.263 414.75V453.95C890.263 456.048 890.956 458.088 892.234 459.752L894.465 462.657C896.032 464.696 898.356 466.015 900.91 466.314L923.595 468.972C924.285 469.052 924.965 469.209 925.622 469.438L938.343 473.873C939.54 474.291 940.641 474.943 941.583 475.792L954.57 487.496L964.135 498.702C965.135 499.874 965.836 501.27 966.178 502.772L972.31 529.713L977.854 573.013L981.18 634.715V691.004V721.314L977.854 760.284L972.31 798.171L965.657 828.481L957.896 865.285L945.7 907.503L929.069 957.297L914.655 993.019L899.133 1034.15L886.937 1060.13L877.761 1081.04C877.232 1082.24 876.958 1083.55 876.958 1084.86V1109.8C876.958 1111.31 877.317 1112.79 878.005 1114.14L882.075 1122.09C883.069 1124.03 884.697 1125.57 886.689 1126.45L893.962 1129.68C895.178 1130.22 896.494 1130.5 897.825 1130.5H910.777C913.263 1130.5 915.651 1131.47 917.43 1133.2L921.308 1136.99L926.994 1144.13C928.337 1145.81 929.069 1147.91 929.069 1150.06V1158.18C929.069 1159.9 928.603 1161.59 927.721 1163.06L922.395 1171.98C921.679 1173.17 920.708 1174.2 919.552 1174.98L908.097 1182.72C907.3 1183.26 906.425 1183.68 905.504 1183.96L893.222 1187.65C892.728 1187.79 892.248 1187.98 891.784 1188.21L876.958 1195.45L865.645 1202.47C865.058 1202.84 864.512 1203.27 864.018 1203.75L854.788 1212.76C854.051 1213.48 853.435 1214.32 852.965 1215.23L846.96 1226.96C846.272 1228.3 845.913 1229.79 845.913 1231.3V1241.86C845.913 1244.92 843.431 1247.4 840.37 1247.4H822.807C821.235 1247.4 819.687 1247.79 818.302 1248.54L800.338 1258.18C798.959 1258.92 797.783 1259.99 796.916 1261.3L784.509 1279.93C784.054 1280.62 783.689 1281.36 783.424 1282.13L773.845 1310.19L765.394 1342.16C765.117 1343.21 764.663 1344.2 764.051 1345.1L749.453 1366.48L725.884 1394.72C725.337 1395.37 724.881 1396.1 724.528 1396.88Z" fill="white" stroke="white" stroke-width="0.952381"/>
<rect x="1037.14" y="80.9043" width="104.762" height="40" rx="0.952381" fill="white"/>
<rect x="1110.48" y="46.6191" width="107.619" height="42.8571" rx="0.952381" transform="rotate(90 1110.48 46.6191)" fill="white"/>
</g>
<defs>
<clipPath id="clip0_387_334">
<rect width="1440" height="2705" fill="white"/>
</clipPath>
</defs>
</svg>
