<svg width="221" height="258" viewBox="0 0 221 258" fill="none" xmlns="http://www.w3.org/2000/svg">
<path d="M28.7731 256.883L20.8749 220.708L66.3853 210.772L54.6655 157.093L92.3186 99.9693L81.1996 93.839L45.0422 149.413L0.619901 127.937L29.6231 45.1943L20.8332 4.93511L47.8127 13.7153L50.3479 11.328L58.1343 7.79413L67.671 3.8781L76.423 1.96725L88.3472 0.586381L99.9426 0.499842L112.376 1.45285L132.173 8.13355L151.568 18.5699L165.255 30.8635L175.569 44.505L183.421 58.0725L189.195 73.3166L192.761 89.6537L192.244 106.882L188.937 125.332L184.483 138.53L178.48 150.232L172.551 159.473L165.784 167.675L158.051 174.253L165.575 189.115L212.252 178.924L220.15 215.099L28.7731 256.883Z" fill="black" stroke="black"/>
</svg>
