<svg width="197" height="252" viewBox="0 0 197 252" fill="none" xmlns="http://www.w3.org/2000/svg">
<path d="M67.6044 250.933L50.2819 219.849L73.3436 206.997L44.297 120.686L38.0511 118.91L31.5258 116.633L27.0634 114.521L21.4833 110.403L15.5664 104.502L10.3729 97.5405L6.18194 90.0204L4.67008 84.9495L3.6021 78.3172L3.31487 71.9068L4.4742 63.3762L5.97038 56.629L9.75132 49.2655L14.6498 43.9074L0.680126 18.8404L33.2673 0.679738L47.237 25.7468L50.8038 25.0731L56.2115 25.3447L61.1179 25.8956L45.4667 77.9829L57.1777 81.3121L71.5468 29.2822L77.8502 32.3399L85.493 36.6222L91.7467 44.3068L96.4964 52.8296L99.7421 62.1906L101.369 69.8256L101.714 77.518L100.719 83.9859L97.4391 91.0699L155.062 161.456L178.124 148.604L195.446 179.687L67.6044 250.933Z" fill="black" stroke="black"/>
</svg>
