<svg width="188" height="219" viewBox="0 0 188 219" fill="none" xmlns="http://www.w3.org/2000/svg">
<path d="M0.67263 146.192L18.9649 110.567L42.9003 122.857L97.0264 59.9116L95.1157 55.4135L94.619 49.5313L94.679 43.9349L95.8823 36.1121L97.6272 29.9741L101.343 22.7378L104.201 17.1714L108.443 13.0192L113.242 9.15273L120.283 5.03046L126.751 2.02146L134.318 0.983184L141.6 0.501544L147.753 0.847358L155.29 2.60726L161.142 4.90879L166.422 8.3236L173.915 14.2808L179.436 21.3362L183.002 28.0908L185.725 35.1163L187.32 42.9692L187.23 51.3637L186.327 57.2309L184.582 63.3688L181.438 69.4918L179.438 73.3883L176.023 78.6688L169.524 84.476L162.213 87.7558L156.03 90.2082L136.415 170.874L159.237 182.593L140.945 218.218L0.67263 146.192Z" fill="black" stroke="black"/>
</svg>
